<svg xmlns="http://www.w3.org/2000/svg" width="138.47" height="160.999" viewBox="0 0 138.47 160.999">
  <g id="dot-shape-right_1_" data-name="dot-shape-right (1)" transform="translate(-1.5 -1.1)">
    <path id="Path_50431" data-name="Path 50431" d="M233.5,110.5a3.193,3.193,0,0,0,3.243,3.186A3.243,3.243,0,1,0,233.5,110.5Z" transform="translate(-100.014 -45.74)" fill="#a27b30"/>
    <path id="Path_50432" data-name="Path 50432" d="M233.5,63.285a3.214,3.214,0,1,0,6.429,0,3.193,3.193,0,0,0-3.243-3.186A3.111,3.111,0,0,0,233.5,63.285Z" transform="translate(-100.015 -25.434)" fill="#a27b30"/>
    <path id="Path_50433" data-name="Path 50433" d="M233.5,39.543a3.214,3.214,0,1,0,6.429,0,3.23,3.23,0,0,0-3.186-3.243A3.278,3.278,0,0,0,233.5,39.543Z" transform="translate(-100.015 -15.175)" fill="#a27b30"/>
    <path id="Path_50434" data-name="Path 50434" d="M233.5,205.086a3.214,3.214,0,1,0,6.429,0,3.214,3.214,0,0,0-6.429,0Z" transform="translate(-100.015 -86.565)" fill="#a27b30"/>
    <path id="Path_50435" data-name="Path 50435" d="M233.5,157.8a3.215,3.215,0,1,0,6.429-.114,3.215,3.215,0,1,0-6.429.114Z" transform="translate(-100.014 -66.131)" fill="#a27b30"/>
    <path id="Path_50436" data-name="Path 50436" d="M236.628,249.1a3.244,3.244,0,1,0,3.3,3.186A3.242,3.242,0,0,0,236.628,249.1Z" transform="translate(-100.014 -106.913)" fill="#a27b30"/>
    <path id="Path_50437" data-name="Path 50437" d="M236.7,90.127a3.215,3.215,0,1,0-.114-6.429,3.23,3.23,0,0,0-3.186,3.243A3.279,3.279,0,0,0,236.7,90.127Z" transform="translate(-99.972 -35.608)" fill="#a27b30"/>
    <path id="Path_50438" data-name="Path 50438" d="M233.5,181.485a3.278,3.278,0,0,0,3.243,3.243,3.214,3.214,0,1,0,0-6.429A3.158,3.158,0,0,0,233.5,181.485Z" transform="translate(-100.015 -76.39)" fill="#a27b30"/>
    <path id="Path_50439" data-name="Path 50439" d="M233.5,275.943a3.214,3.214,0,1,0,3.186-3.243A3.267,3.267,0,0,0,233.5,275.943Z" transform="translate(-100.015 -117.086)" fill="#a27b30"/>
    <path id="Path_50440" data-name="Path 50440" d="M236.686,231.929a3.214,3.214,0,1,0,0-6.429,3.214,3.214,0,0,0,0,6.429Z" transform="translate(-100.015 -96.739)" fill="#a27b30"/>
    <path id="Path_50441" data-name="Path 50441" d="M233.5,15.985a3.241,3.241,0,0,0,3.243,3.243,3.214,3.214,0,1,0,0-6.429A3.158,3.158,0,0,0,233.5,15.985Z" transform="translate(-100.015 -5.043)" fill="#a27b30"/>
    <path id="Path_50442" data-name="Path 50442" d="M236.643,137.429a3.214,3.214,0,1,0,0-6.429,3.23,3.23,0,0,0-3.243,3.186A3.278,3.278,0,0,0,236.643,137.429Z" transform="translate(-99.972 -56)" fill="#a27b30"/>
    <path id="Path_50443" data-name="Path 50443" d="M221.8,169.686a3.129,3.129,0,1,0,3.129-3.186A3.169,3.169,0,0,0,221.8,169.686Z" transform="translate(-94.971 -71.304)" fill="#a27b30"/>
    <path id="Path_50444" data-name="Path 50444" d="M224.929,149.115a3.158,3.158,0,1,0-3.129-3.186A3.1,3.1,0,0,0,224.929,149.115Z" transform="translate(-94.971 -61.087)" fill="#a27b30"/>
    <path id="Path_50445" data-name="Path 50445" d="M224.929,48.3a3.085,3.085,0,0,0-3.129,3.129,3.129,3.129,0,1,0,3.129-3.129Z" transform="translate(-94.971 -20.348)" fill="#a27b30"/>
    <path id="Path_50446" data-name="Path 50446" d="M224.928,125.515a3.158,3.158,0,1,0-.057-6.315,3.072,3.072,0,0,0-3.072,3.129A3.133,3.133,0,0,0,224.928,125.515Z" transform="translate(-94.97 -50.913)" fill="#a27b30"/>
    <path id="Path_50447" data-name="Path 50447" d="M225.028,243.757a3.129,3.129,0,1,0-3.129-3.072A3,3,0,0,0,225.028,243.757Z" transform="translate(-95.013 -101.911)" fill="#a27b30"/>
    <path id="Path_50448" data-name="Path 50448" d="M228.057,75.071A3.051,3.051,0,0,0,224.871,72a3.119,3.119,0,0,0-3.072,3.186,3.158,3.158,0,0,0,3.186,3.072A3.051,3.051,0,0,0,228.057,75.071Z" transform="translate(-94.97 -30.564)" fill="#a27b30"/>
    <path id="Path_50449" data-name="Path 50449" d="M221.8,4.229a3.133,3.133,0,0,0,3.186,3.129,3.051,3.051,0,0,0,3.072-3.186A3.158,3.158,0,0,0,224.872,1.1,3.108,3.108,0,0,0,221.8,4.229Z" transform="translate(-94.971 0)" fill="#a27b30"/>
    <path id="Path_50450" data-name="Path 50450" d="M224.886,220.115a3.158,3.158,0,1,0-3.186-3.186A3.217,3.217,0,0,0,224.886,220.115Z" transform="translate(-94.928 -91.695)" fill="#a27b30"/>
    <path id="Path_50451" data-name="Path 50451" d="M224.929,24.7a3.158,3.158,0,1,0,3.186,3.186A3.217,3.217,0,0,0,224.929,24.7Z" transform="translate(-94.971 -10.174)" fill="#a27b30"/>
    <path id="Path_50452" data-name="Path 50452" d="M224.929,190.2a3.158,3.158,0,1,0,3.129,3.186A3.1,3.1,0,0,0,224.929,190.2Z" transform="translate(-94.971 -81.521)" fill="#a27b30"/>
    <path id="Path_50453" data-name="Path 50453" d="M224.929,261.1a3.158,3.158,0,1,0,3.186,3.186A3.217,3.217,0,0,0,224.929,261.1Z" transform="translate(-94.971 -112.086)" fill="#a27b30"/>
    <path id="Path_50454" data-name="Path 50454" d="M221.8,98.828a3.158,3.158,0,1,0,3.186-3.129A3.064,3.064,0,0,0,221.8,98.828Z" transform="translate(-94.971 -40.781)" fill="#a27b30"/>
    <path id="Path_50455" data-name="Path 50455" d="M213.172,113.744a3.072,3.072,0,1,0-3.072-3.072A3.059,3.059,0,0,0,213.172,113.744Z" transform="translate(-89.927 -45.912)" fill="#a27b30"/>
    <path id="Path_50456" data-name="Path 50456" d="M210.1,134.272a3.072,3.072,0,1,0,3.015-3.072A3.108,3.108,0,0,0,210.1,134.272Z" transform="translate(-89.927 -56.086)" fill="#a27b30"/>
    <path id="Path_50457" data-name="Path 50457" d="M210.1,228.872a3.108,3.108,0,0,0,3.129,3.072,3.046,3.046,0,0,0,3.015-3.072,3.072,3.072,0,1,0-6.144,0Z" transform="translate(-89.927 -96.868)" fill="#a27b30"/>
    <path id="Path_50458" data-name="Path 50458" d="M213.172,13a3.108,3.108,0,0,0-3.072,3.129,3.011,3.011,0,0,0,3.072,3.015,3.072,3.072,0,1,0,0-6.144Z" transform="translate(-89.927 -5.13)" fill="#a27b30"/>
    <path id="Path_50459" data-name="Path 50459" d="M216.244,252.472a3.072,3.072,0,1,0-3.072,3.072A3.059,3.059,0,0,0,216.244,252.472Z" transform="translate(-89.927 -107.042)" fill="#a27b30"/>
    <path id="Path_50460" data-name="Path 50460" d="M210.1,276.072a3.059,3.059,0,0,0,3.072,3.072,3.1,3.1,0,0,0,3.072-3.072A3.059,3.059,0,0,0,213.172,273,3.134,3.134,0,0,0,210.1,276.072Z" transform="translate(-89.927 -117.216)" fill="#a27b30"/>
    <path id="Path_50461" data-name="Path 50461" d="M213.172,90.044a3.059,3.059,0,0,0,3.072-3.072,3.1,3.1,0,0,0-3.072-3.072,3.072,3.072,0,0,0,0,6.144Z" transform="translate(-89.927 -35.695)" fill="#a27b30"/>
    <path id="Path_50462" data-name="Path 50462" d="M213.172,36.6a3.072,3.072,0,1,0,3.072,3.072A3.134,3.134,0,0,0,213.172,36.6Z" transform="translate(-89.927 -15.304)" fill="#a27b30"/>
    <path id="Path_50463" data-name="Path 50463" d="M213.172,208.2a3.1,3.1,0,1,0-3.072-3.072A3.059,3.059,0,0,0,213.172,208.2Z" transform="translate(-89.927 -86.608)" fill="#a27b30"/>
    <path id="Path_50464" data-name="Path 50464" d="M210.1,157.972a3.108,3.108,0,0,0,3.129,3.072,3.046,3.046,0,0,0,3.015-3.072,3.108,3.108,0,0,0-3.129-3.072A3.048,3.048,0,0,0,210.1,157.972Z" transform="translate(-89.927 -66.303)" fill="#a27b30"/>
    <path id="Path_50465" data-name="Path 50465" d="M210.1,181.572a3.072,3.072,0,1,0,3.072-3.072A3.059,3.059,0,0,0,210.1,181.572Z" transform="translate(-89.927 -76.477)" fill="#a27b30"/>
    <path id="Path_50466" data-name="Path 50466" d="M210.1,63.372a3.072,3.072,0,1,0,3.072-3.072A3.059,3.059,0,0,0,210.1,63.372Z" transform="translate(-89.927 -25.521)" fill="#a27b30"/>
    <path id="Path_50467" data-name="Path 50467" d="M201.415,220.073a2.951,2.951,0,0,0,2.958-3.015,2.987,2.987,0,0,0-5.973,0A3.035,3.035,0,0,0,201.415,220.073Z" transform="translate(-84.883 -91.824)" fill="#a27b30"/>
    <path id="Path_50468" data-name="Path 50468" d="M198.4,28.015a2.987,2.987,0,0,0,3.015,2.958,3.023,3.023,0,0,0,2.958-3.015A2.987,2.987,0,0,0,201.358,25,3.024,3.024,0,0,0,198.4,28.015Z" transform="translate(-84.883 -10.303)" fill="#a27b30"/>
    <path id="Path_50469" data-name="Path 50469" d="M198.4,146.115a2.987,2.987,0,0,0,5.973-.057,3.012,3.012,0,0,0-2.958-2.958A3.073,3.073,0,0,0,198.4,146.115Z" transform="translate(-84.883 -61.216)" fill="#a27b30"/>
    <path id="Path_50470" data-name="Path 50470" d="M201.415,243.673a2.987,2.987,0,0,0,2.958-3.015,2.987,2.987,0,1,0-5.973.057A2.951,2.951,0,0,0,201.415,243.673Z" transform="translate(-84.883 -101.998)" fill="#a27b30"/>
    <path id="Path_50471" data-name="Path 50471" d="M198.4,264.415a2.951,2.951,0,0,0,3.015,2.958,2.987,2.987,0,1,0-.057-5.973A3.024,3.024,0,0,0,198.4,264.415Z" transform="translate(-84.883 -112.215)" fill="#a27b30"/>
    <path id="Path_50472" data-name="Path 50472" d="M198.4,169.758a3.016,3.016,0,1,0,3.072-2.958A3.035,3.035,0,0,0,198.4,169.758Z" transform="translate(-84.883 -71.433)" fill="#a27b30"/>
    <path id="Path_50473" data-name="Path 50473" d="M201.415,54.573a2.951,2.951,0,0,0,2.958-3.015,2.987,2.987,0,1,0-2.958,3.015Z" transform="translate(-84.883 -20.477)" fill="#a27b30"/>
    <path id="Path_50474" data-name="Path 50474" d="M201.415,78.273a2.987,2.987,0,0,0,2.958-3.015,2.987,2.987,0,1,0-2.958,3.015Z" transform="translate(-84.883 -30.694)" fill="#a27b30"/>
    <path id="Path_50475" data-name="Path 50475" d="M198.4,4.315a2.987,2.987,0,0,0,3.015,2.958,3.023,3.023,0,0,0,2.958-3.015A2.987,2.987,0,0,0,201.358,1.3,3.024,3.024,0,0,0,198.4,4.315Z" transform="translate(-84.883 -0.086)" fill="#a27b30"/>
    <path id="Path_50476" data-name="Path 50476" d="M201.415,190.5a2.987,2.987,0,1,0,2.958,3.015A2.987,2.987,0,0,0,201.415,190.5Z" transform="translate(-84.883 -81.65)" fill="#a27b30"/>
    <path id="Path_50477" data-name="Path 50477" d="M198.4,122.515a2.987,2.987,0,1,0,5.973-.057,2.987,2.987,0,0,0-5.973.057Z" transform="translate(-84.883 -51.042)" fill="#a27b30"/>
    <path id="Path_50478" data-name="Path 50478" d="M198.4,98.915a2.987,2.987,0,0,0,3.015,2.958,2.987,2.987,0,1,0-3.015-2.958Z" transform="translate(-84.883 -40.868)" fill="#a27b30"/>
    <path id="Path_50479" data-name="Path 50479" d="M189.6,184.6a2.865,2.865,0,0,0,2.9-2.844,2.9,2.9,0,1,0-2.9,2.844Z" transform="translate(-79.84 -76.606)" fill="#a27b30"/>
    <path id="Path_50480" data-name="Path 50480" d="M186.7,205.4a2.9,2.9,0,1,0,5.8-.057,2.9,2.9,0,0,0-5.8.057Z" transform="translate(-79.84 -86.823)" fill="#a27b30"/>
    <path id="Path_50481" data-name="Path 50481" d="M189.6,231.9a2.865,2.865,0,0,0,2.9-2.845,2.9,2.9,0,1,0-2.9,2.845Z" transform="translate(-79.84 -96.997)" fill="#a27b30"/>
    <path id="Path_50482" data-name="Path 50482" d="M186.7,63.5a2.877,2.877,0,0,0,2.9,2.9,2.842,2.842,0,0,0,2.9-2.9,2.914,2.914,0,0,0-2.9-2.9A2.951,2.951,0,0,0,186.7,63.5Z" transform="translate(-79.84 -25.65)" fill="#a27b30"/>
    <path id="Path_50483" data-name="Path 50483" d="M189.7,155.1a2.865,2.865,0,0,0-2.9,2.844,2.9,2.9,0,1,0,2.9-2.844Z" transform="translate(-79.883 -66.389)" fill="#a27b30"/>
    <path id="Path_50484" data-name="Path 50484" d="M186.7,110.7a2.9,2.9,0,1,0,5.8,0,2.914,2.914,0,0,0-2.9-2.9A2.991,2.991,0,0,0,186.7,110.7Z" transform="translate(-79.84 -45.998)" fill="#a27b30"/>
    <path id="Path_50485" data-name="Path 50485" d="M186.7,39.9a2.9,2.9,0,1,0,5.8-.057,2.9,2.9,0,0,0-5.8.057Z" transform="translate(-79.84 -15.476)" fill="#a27b30"/>
    <path id="Path_50486" data-name="Path 50486" d="M189.6,90a2.914,2.914,0,0,0,2.9-2.9,2.877,2.877,0,0,0-2.9-2.9,2.9,2.9,0,0,0,0,5.8Z" transform="translate(-79.84 -35.824)" fill="#a27b30"/>
    <path id="Path_50487" data-name="Path 50487" d="M186.7,134.4a2.865,2.865,0,0,0,2.845,2.9,2.9,2.9,0,1,0-2.845-2.9Z" transform="translate(-79.84 -56.215)" fill="#a27b30"/>
    <path id="Path_50488" data-name="Path 50488" d="M186.7,252.6a2.9,2.9,0,1,0,5.8-.057,2.83,2.83,0,0,0-2.9-2.845A2.914,2.914,0,0,0,186.7,252.6Z" transform="translate(-79.84 -107.17)" fill="#a27b30"/>
    <path id="Path_50489" data-name="Path 50489" d="M186.7,16.2a2.865,2.865,0,0,0,2.845,2.9,2.9,2.9,0,1,0-2.845-2.9Z" transform="translate(-79.84 -5.259)" fill="#a27b30"/>
    <path id="Path_50490" data-name="Path 50490" d="M186.7,276.2a2.865,2.865,0,0,0,2.845,2.9,2.9,2.9,0,1,0-2.845-2.9Z" transform="translate(-79.84 -117.345)" fill="#a27b30"/>
    <path id="Path_50491" data-name="Path 50491" d="M175.1,240.844a2.736,2.736,0,0,0,2.844,2.788,2.816,2.816,0,0,0,0-5.632A2.817,2.817,0,0,0,175.1,240.844Z" transform="translate(-74.839 -102.127)" fill="#a27b30"/>
    <path id="Path_50492" data-name="Path 50492" d="M177.888,96.2a2.816,2.816,0,1,0,2.845,2.845A2.817,2.817,0,0,0,177.888,96.2Z" transform="translate(-74.839 -40.998)" fill="#a27b30"/>
    <path id="Path_50493" data-name="Path 50493" d="M177.886,1.6A2.736,2.736,0,0,0,175.1,4.445a2.816,2.816,0,0,0,5.632,0A2.817,2.817,0,0,0,177.886,1.6Z" transform="translate(-74.837 -0.216)" fill="#a27b30"/>
    <path id="Path_50494" data-name="Path 50494" d="M175.1,51.745a2.77,2.77,0,0,0,2.844,2.788,2.816,2.816,0,1,0-.057-5.632A2.77,2.77,0,0,0,175.1,51.745Z" transform="translate(-74.839 -20.607)" fill="#a27b30"/>
    <path id="Path_50495" data-name="Path 50495" d="M177.888,143.5a2.816,2.816,0,1,0,2.845,2.845A2.817,2.817,0,0,0,177.888,143.5Z" transform="translate(-74.839 -61.389)" fill="#a27b30"/>
    <path id="Path_50496" data-name="Path 50496" d="M177.888,214.4a2.816,2.816,0,1,0,2.845,2.844A2.817,2.817,0,0,0,177.888,214.4Z" transform="translate(-74.839 -91.953)" fill="#a27b30"/>
    <path id="Path_50497" data-name="Path 50497" d="M175.1,122.686a2.8,2.8,0,0,0,2.788,2.845,2.816,2.816,0,0,0,0-5.632A2.722,2.722,0,0,0,175.1,122.686Z" transform="translate(-74.839 -51.213)" fill="#a27b30"/>
    <path id="Path_50498" data-name="Path 50498" d="M177.844,167.1A2.817,2.817,0,0,0,175,169.944a2.816,2.816,0,0,0,5.632,0A2.736,2.736,0,0,0,177.844,167.1Z" transform="translate(-74.796 -71.562)" fill="#a27b30"/>
    <path id="Path_50499" data-name="Path 50499" d="M177.944,30.932a2.816,2.816,0,1,0-2.844-2.845A2.817,2.817,0,0,0,177.944,30.932Z" transform="translate(-74.839 -10.433)" fill="#a27b30"/>
    <path id="Path_50500" data-name="Path 50500" d="M175.1,75.386a2.8,2.8,0,0,0,2.788,2.845,2.816,2.816,0,0,0,0-5.632A2.722,2.722,0,0,0,175.1,75.386Z" transform="translate(-74.839 -30.822)" fill="#a27b30"/>
    <path id="Path_50501" data-name="Path 50501" d="M177.844,196.432a2.736,2.736,0,0,0,2.788-2.845,2.816,2.816,0,0,0-5.632,0A2.89,2.89,0,0,0,177.844,196.432Z" transform="translate(-74.796 -81.78)" fill="#a27b30"/>
    <path id="Path_50502" data-name="Path 50502" d="M177.844,261.7A2.8,2.8,0,0,0,175,264.488a2.816,2.816,0,0,0,5.632,0A2.722,2.722,0,0,0,177.844,261.7Z" transform="translate(-74.796 -112.344)" fill="#a27b30"/>
    <path id="Path_50503" data-name="Path 50503" d="M163.4,229.088a2.615,2.615,0,0,0,2.731,2.674,2.731,2.731,0,0,0-.057-5.461A2.77,2.77,0,0,0,163.4,229.088Z" transform="translate(-69.795 -97.084)" fill="#a27b30"/>
    <path id="Path_50504" data-name="Path 50504" d="M163.4,63.588a2.7,2.7,0,1,0,5.4-.114,2.684,2.684,0,0,0-2.731-2.674A2.77,2.77,0,0,0,163.4,63.588Z" transform="translate(-69.795 -25.737)" fill="#a27b30"/>
    <path id="Path_50505" data-name="Path 50505" d="M166.088,19.1a2.648,2.648,0,0,0,2.674-2.731,2.731,2.731,0,0,0-5.461.057A2.808,2.808,0,0,0,166.088,19.1Z" transform="translate(-69.752 -5.432)" fill="#a27b30"/>
    <path id="Path_50506" data-name="Path 50506" d="M163.4,110.888a2.615,2.615,0,0,0,2.731,2.674,2.731,2.731,0,0,0-.057-5.461A2.77,2.77,0,0,0,163.4,110.888Z" transform="translate(-69.795 -46.128)" fill="#a27b30"/>
    <path id="Path_50507" data-name="Path 50507" d="M163.4,158.188a2.615,2.615,0,0,0,2.731,2.674,2.731,2.731,0,0,0-.057-5.461A2.77,2.77,0,0,0,163.4,158.188Z" transform="translate(-69.795 -66.519)" fill="#a27b30"/>
    <path id="Path_50508" data-name="Path 50508" d="M163.4,181.788a2.7,2.7,0,1,0,5.4-.114A2.684,2.684,0,0,0,166.074,179,2.77,2.77,0,0,0,163.4,181.788Z" transform="translate(-69.795 -76.693)" fill="#a27b30"/>
    <path id="Path_50509" data-name="Path 50509" d="M166.131,37.3a2.731,2.731,0,0,0,0,5.461,2.758,2.758,0,0,0,2.731-2.674A2.709,2.709,0,0,0,166.131,37.3Z" transform="translate(-69.795 -15.606)" fill="#a27b30"/>
    <path id="Path_50510" data-name="Path 50510" d="M163.4,134.588a2.648,2.648,0,0,0,2.731,2.674,2.731,2.731,0,0,0-.057-5.461A2.733,2.733,0,0,0,163.4,134.588Z" transform="translate(-69.795 -56.345)" fill="#a27b30"/>
    <path id="Path_50511" data-name="Path 50511" d="M163.4,252.731a2.731,2.731,0,0,0,5.461,0,2.731,2.731,0,1,0-5.461,0Z" transform="translate(-69.795 -107.301)" fill="#a27b30"/>
    <path id="Path_50512" data-name="Path 50512" d="M166.131,202.8a2.731,2.731,0,1,0,2.674,2.788A2.63,2.63,0,0,0,166.131,202.8Z" transform="translate(-69.795 -86.953)" fill="#a27b30"/>
    <path id="Path_50513" data-name="Path 50513" d="M166.131,84.6a2.7,2.7,0,0,0-2.731,2.731A2.615,2.615,0,0,0,166.131,90a2.684,2.684,0,0,0,2.674-2.731A2.569,2.569,0,0,0,166.131,84.6Z" transform="translate(-69.795 -35.995)" fill="#a27b30"/>
    <path id="Path_50514" data-name="Path 50514" d="M163.4,276.388a2.615,2.615,0,0,0,2.731,2.674,2.731,2.731,0,0,0-.057-5.461A2.77,2.77,0,0,0,163.4,276.388Z" transform="translate(-69.795 -117.475)" fill="#a27b30"/>
    <path id="Path_50515" data-name="Path 50515" d="M154.417,214.7a2.617,2.617,0,1,0,2.674,2.56A2.728,2.728,0,0,0,154.417,214.7Z" transform="translate(-64.794 -92.083)" fill="#a27b30"/>
    <path id="Path_50516" data-name="Path 50516" d="M154.374,196.332a2.617,2.617,0,1,0-2.674-2.56A2.648,2.648,0,0,0,154.374,196.332Z" transform="translate(-64.751 -81.907)" fill="#a27b30"/>
    <path id="Path_50517" data-name="Path 50517" d="M151.8,75.474a2.575,2.575,0,0,0,2.617,2.617,2.671,2.671,0,0,0,2.674-2.674,2.61,2.61,0,0,0-2.617-2.617A2.67,2.67,0,0,0,151.8,75.474Z" transform="translate(-64.794 -30.91)" fill="#a27b30"/>
    <path id="Path_50518" data-name="Path 50518" d="M154.374,125.391a2.575,2.575,0,0,0,2.617-2.617,2.671,2.671,0,0,0-2.674-2.674,2.61,2.61,0,0,0-2.617,2.617A2.67,2.67,0,0,0,154.374,125.391Z" transform="translate(-64.751 -51.301)" fill="#a27b30"/>
    <path id="Path_50519" data-name="Path 50519" d="M151.8,170.074a2.575,2.575,0,0,0,2.617,2.617,2.671,2.671,0,0,0,2.674-2.674,2.61,2.61,0,0,0-2.617-2.617A2.67,2.67,0,0,0,151.8,170.074Z" transform="translate(-64.794 -71.692)" fill="#a27b30"/>
    <path id="Path_50520" data-name="Path 50520" d="M154.317,238.4a2.617,2.617,0,1,0,.057,5.234,2.575,2.575,0,0,0,2.56-2.674A2.5,2.5,0,0,0,154.317,238.4Z" transform="translate(-64.751 -102.298)" fill="#a27b30"/>
    <path id="Path_50521" data-name="Path 50521" d="M151.8,146.374a2.617,2.617,0,1,0,2.56-2.674A2.687,2.687,0,0,0,151.8,146.374Z" transform="translate(-64.794 -61.475)" fill="#a27b30"/>
    <path id="Path_50522" data-name="Path 50522" d="M151.8,264.674a2.617,2.617,0,1,0,2.56-2.674A2.576,2.576,0,0,0,151.8,264.674Z" transform="translate(-64.793 -112.474)" fill="#a27b30"/>
    <path id="Path_50523" data-name="Path 50523" d="M151.8,28.174a2.575,2.575,0,0,0,2.617,2.617,2.671,2.671,0,0,0,2.674-2.674,2.61,2.61,0,0,0-2.617-2.617A2.707,2.707,0,0,0,151.8,28.174Z" transform="translate(-64.794 -10.519)" fill="#a27b30"/>
    <path id="Path_50524" data-name="Path 50524" d="M154.415,54.532a2.617,2.617,0,1,0-.057-5.234,2.617,2.617,0,0,0,.057,5.234Z" transform="translate(-64.793 -20.777)" fill="#a27b30"/>
    <path id="Path_50525" data-name="Path 50525" d="M151.8,99.215a2.617,2.617,0,1,0,5.234-.057,2.575,2.575,0,0,0-2.674-2.56A2.528,2.528,0,0,0,151.8,99.215Z" transform="translate(-64.793 -41.168)" fill="#a27b30"/>
    <path id="Path_50526" data-name="Path 50526" d="M151.8,4.574a2.575,2.575,0,0,0,2.617,2.617,2.671,2.671,0,0,0,2.674-2.674A2.61,2.61,0,0,0,154.474,1.9,2.67,2.67,0,0,0,151.8,4.574Z" transform="translate(-64.794 -0.345)" fill="#a27b30"/>
    <path id="Path_50527" data-name="Path 50527" d="M140.1,16.5a2.575,2.575,0,0,0,2.5,2.56,2.532,2.532,0,1,0,0-5.063A2.454,2.454,0,0,0,140.1,16.5Z" transform="translate(-59.75 -5.56)" fill="#a27b30"/>
    <path id="Path_50528" data-name="Path 50528" d="M140.1,229.26a2.5,2.5,0,0,0,2.56,2.5,2.532,2.532,0,1,0,0-5.063A2.624,2.624,0,0,0,140.1,229.26Z" transform="translate(-59.75 -97.256)" fill="#a27b30"/>
    <path id="Path_50529" data-name="Path 50529" d="M140.1,252.9a2.614,2.614,0,0,0,2.5,2.56,2.549,2.549,0,0,0,2.56-2.56,2.532,2.532,0,0,0-5.063,0Z" transform="translate(-59.75 -107.473)" fill="#a27b30"/>
    <path id="Path_50530" data-name="Path 50530" d="M142.66,179.4a2.575,2.575,0,0,0-2.56,2.5,2.549,2.549,0,0,0,2.56,2.56,2.532,2.532,0,0,0,0-5.063Z" transform="translate(-59.75 -76.865)" fill="#a27b30"/>
    <path id="Path_50531" data-name="Path 50531" d="M140.1,87.46a2.5,2.5,0,0,0,2.56,2.5,2.532,2.532,0,1,0,0-5.063A2.549,2.549,0,0,0,140.1,87.46Z" transform="translate(-59.75 -36.126)" fill="#a27b30"/>
    <path id="Path_50532" data-name="Path 50532" d="M142.66,61.2a2.575,2.575,0,0,0-2.56,2.5,2.549,2.549,0,0,0,2.56,2.56,2.532,2.532,0,0,0,0-5.063Z" transform="translate(-59.75 -25.909)" fill="#a27b30"/>
    <path id="Path_50533" data-name="Path 50533" d="M142.7,208.163a2.614,2.614,0,0,0,2.56-2.5,2.549,2.549,0,0,0-2.56-2.56,2.5,2.5,0,0,0-2.5,2.56A2.454,2.454,0,0,0,142.7,208.163Z" transform="translate(-59.792 -87.082)" fill="#a27b30"/>
    <path id="Path_50534" data-name="Path 50534" d="M140.1,111a2.575,2.575,0,0,0,2.5,2.56,2.532,2.532,0,1,0-2.5-2.56Z" transform="translate(-59.75 -46.3)" fill="#a27b30"/>
    <path id="Path_50535" data-name="Path 50535" d="M140.1,134.7a2.614,2.614,0,0,0,2.5,2.56,2.549,2.549,0,0,0,2.56-2.56,2.532,2.532,0,0,0-5.063,0Z" transform="translate(-59.75 -56.517)" fill="#a27b30"/>
    <path id="Path_50536" data-name="Path 50536" d="M140.1,158.3a2.614,2.614,0,0,0,2.5,2.56,2.549,2.549,0,0,0,2.56-2.56,2.532,2.532,0,0,0-5.063,0Z" transform="translate(-59.75 -66.691)" fill="#a27b30"/>
    <path id="Path_50537" data-name="Path 50537" d="M140.1,40.1a2.614,2.614,0,0,0,2.5,2.56,2.549,2.549,0,0,0,2.56-2.56,2.532,2.532,0,0,0-5.063,0Z" transform="translate(-59.75 -15.735)" fill="#a27b30"/>
    <path id="Path_50538" data-name="Path 50538" d="M142.6,279.063a2.575,2.575,0,0,0,2.56-2.5A2.549,2.549,0,0,0,142.6,274a2.532,2.532,0,0,0,0,5.063Z" transform="translate(-59.75 -117.647)" fill="#a27b30"/>
    <path id="Path_50539" data-name="Path 50539" d="M130.846,144.1a2.446,2.446,0,1,0,2.446,2.446A2.464,2.464,0,0,0,130.846,144.1Z" transform="translate(-54.706 -61.647)" fill="#a27b30"/>
    <path id="Path_50540" data-name="Path 50540" d="M130.945,172.734a2.418,2.418,0,1,0-2.446-2.389A2.416,2.416,0,0,0,130.945,172.734Z" transform="translate(-54.748 -71.906)" fill="#a27b30"/>
    <path id="Path_50541" data-name="Path 50541" d="M130.846,96.9a2.446,2.446,0,1,0,2.446,2.446A2.428,2.428,0,0,0,130.846,96.9Z" transform="translate(-54.706 -41.299)" fill="#a27b30"/>
    <path id="Path_50542" data-name="Path 50542" d="M133.334,4.631A2.419,2.419,0,1,0,131,7.134,2.349,2.349,0,0,0,133.334,4.631Z" transform="translate(-54.748 -0.516)" fill="#a27b30"/>
    <path id="Path_50543" data-name="Path 50543" d="M130.846,219.893a2.446,2.446,0,1,0-2.446-2.446A2.5,2.5,0,0,0,130.846,219.893Z" transform="translate(-54.706 -92.212)" fill="#a27b30"/>
    <path id="Path_50544" data-name="Path 50544" d="M128.5,52.045a2.418,2.418,0,1,0,2.389-2.446A2.38,2.38,0,0,0,128.5,52.045Z" transform="translate(-54.748 -20.907)" fill="#a27b30"/>
    <path id="Path_50545" data-name="Path 50545" d="M128.5,264.746a2.446,2.446,0,1,0,2.446-2.446A2.5,2.5,0,0,0,128.5,264.746Z" transform="translate(-54.75 -112.603)" fill="#a27b30"/>
    <path id="Path_50546" data-name="Path 50546" d="M130.888,191.4a2.418,2.418,0,1,0,2.446,2.389A2.416,2.416,0,0,0,130.888,191.4Z" transform="translate(-54.748 -82.038)" fill="#a27b30"/>
    <path id="Path_50547" data-name="Path 50547" d="M133.291,241.088a2.447,2.447,0,1,0-2.389,2.5A2.428,2.428,0,0,0,133.291,241.088Z" transform="translate(-54.705 -102.427)" fill="#a27b30"/>
    <path id="Path_50548" data-name="Path 50548" d="M130.946,25.9a2.418,2.418,0,1,0,2.389,2.446A2.414,2.414,0,0,0,130.946,25.9Z" transform="translate(-54.75 -10.691)" fill="#a27b30"/>
    <path id="Path_50549" data-name="Path 50549" d="M130.888,125.436a2.418,2.418,0,1,0-2.389-2.446A2.414,2.414,0,0,0,130.888,125.436Z" transform="translate(-54.748 -51.516)" fill="#a27b30"/>
    <path id="Path_50550" data-name="Path 50550" d="M128.5,75.646a2.446,2.446,0,1,0,2.446-2.446A2.428,2.428,0,0,0,128.5,75.646Z" transform="translate(-54.748 -31.082)" fill="#a27b30"/>
    <path id="Path_50551" data-name="Path 50551" d="M116.8,205.774a2.431,2.431,0,0,0,2.332,2.389,2.333,2.333,0,1,0,.057-4.665A2.309,2.309,0,0,0,116.8,205.774Z" transform="translate(-49.706 -87.253)" fill="#a27b30"/>
    <path id="Path_50552" data-name="Path 50552" d="M116.8,40.345a2.334,2.334,0,1,0,2.219-2.446A2.342,2.342,0,0,0,116.8,40.345Z" transform="translate(-49.704 -15.863)" fill="#a27b30"/>
    <path id="Path_50553" data-name="Path 50553" d="M116.8,111.174a2.431,2.431,0,0,0,2.332,2.389,2.333,2.333,0,1,0,.057-4.665A2.309,2.309,0,0,0,116.8,111.174Z" transform="translate(-49.706 -46.471)" fill="#a27b30"/>
    <path id="Path_50554" data-name="Path 50554" d="M119.189,14.3a2.431,2.431,0,0,0-2.389,2.332,2.333,2.333,0,1,0,4.665.057A2.309,2.309,0,0,0,119.189,14.3Z" transform="translate(-49.706 -5.691)" fill="#a27b30"/>
    <path id="Path_50555" data-name="Path 50555" d="M116.8,87.645a2.342,2.342,0,0,0,2.389,2.276,2.362,2.362,0,0,0-.171-4.722A2.348,2.348,0,0,0,116.8,87.645Z" transform="translate(-49.704 -36.254)" fill="#a27b30"/>
    <path id="Path_50556" data-name="Path 50556" d="M119.174,66.222a2.431,2.431,0,0,0,2.389-2.332,2.333,2.333,0,1,0-4.665-.057A2.274,2.274,0,0,0,119.174,66.222Z" transform="translate(-49.747 -26.038)" fill="#a27b30"/>
    <path id="Path_50557" data-name="Path 50557" d="M116.8,253.045a2.334,2.334,0,1,0,2.219-2.446A2.422,2.422,0,0,0,116.8,253.045Z" transform="translate(-49.704 -107.558)" fill="#a27b30"/>
    <path id="Path_50558" data-name="Path 50558" d="M116.8,158.545a2.334,2.334,0,1,0,2.219-2.446A2.342,2.342,0,0,0,116.8,158.545Z" transform="translate(-49.704 -66.819)" fill="#a27b30"/>
    <path id="Path_50559" data-name="Path 50559" d="M116.8,182.145a2.334,2.334,0,1,0,4.665-.171,2.392,2.392,0,0,0-2.446-2.276A2.422,2.422,0,0,0,116.8,182.145Z" transform="translate(-49.704 -76.993)" fill="#a27b30"/>
    <path id="Path_50560" data-name="Path 50560" d="M116.8,229.445A2.334,2.334,0,1,0,119.017,227,2.422,2.422,0,0,0,116.8,229.445Z" transform="translate(-49.704 -97.384)" fill="#a27b30"/>
    <path id="Path_50561" data-name="Path 50561" d="M116.8,134.874a2.431,2.431,0,0,0,2.332,2.389,2.333,2.333,0,1,0,.057-4.665A2.274,2.274,0,0,0,116.8,134.874Z" transform="translate(-49.706 -56.688)" fill="#a27b30"/>
    <path id="Path_50562" data-name="Path 50562" d="M116.8,276.674a2.431,2.431,0,0,0,2.332,2.389,2.333,2.333,0,1,0,.057-4.665A2.309,2.309,0,0,0,116.8,276.674Z" transform="translate(-49.706 -117.818)" fill="#a27b30"/>
    <path id="Path_50563" data-name="Path 50563" d="M107.376,172.637a2.219,2.219,0,1,0-.057-4.437,2.259,2.259,0,0,0-2.219,2.219A2.31,2.31,0,0,0,107.376,172.637Z" transform="translate(-44.662 -72.037)" fill="#a27b30"/>
    <path id="Path_50564" data-name="Path 50564" d="M105.2,123.119a2.219,2.219,0,1,0,2.219-2.219A2.221,2.221,0,0,0,105.2,123.119Z" transform="translate(-44.705 -51.646)" fill="#a27b30"/>
    <path id="Path_50565" data-name="Path 50565" d="M107.419,144.5a2.219,2.219,0,1,0,.057,4.437,2.219,2.219,0,1,0-.057-4.437Z" transform="translate(-44.705 -61.82)" fill="#a27b30"/>
    <path id="Path_50566" data-name="Path 50566" d="M107.376,215.4a2.27,2.27,0,0,0-2.276,2.219,2.186,2.186,0,0,0,2.219,2.219,2.21,2.21,0,0,0,2.219-2.162A2.183,2.183,0,0,0,107.376,215.4Z" transform="translate(-44.662 -92.385)" fill="#a27b30"/>
    <path id="Path_50567" data-name="Path 50567" d="M105.2,4.919a2.234,2.234,0,0,0,2.276,2.219,2.153,2.153,0,0,0,2.162-2.276A2.248,2.248,0,0,0,107.419,2.7,2.221,2.221,0,0,0,105.2,4.919Z" transform="translate(-44.705 -0.69)" fill="#a27b30"/>
    <path id="Path_50568" data-name="Path 50568" d="M107.419,239.1a2.248,2.248,0,1,0,2.219,2.276A2.234,2.234,0,0,0,107.419,239.1Z" transform="translate(-44.705 -102.602)" fill="#a27b30"/>
    <path id="Path_50569" data-name="Path 50569" d="M105.2,99.517a2.234,2.234,0,0,0,2.276,2.219,2.153,2.153,0,0,0,2.162-2.276,2.248,2.248,0,0,0-2.219-2.162A2.152,2.152,0,0,0,105.2,99.517Z" transform="translate(-44.705 -41.47)" fill="#a27b30"/>
    <path id="Path_50570" data-name="Path 50570" d="M107.419,77.994a2.247,2.247,0,1,0-.057-4.494,2.21,2.21,0,0,0-2.162,2.219A2.234,2.234,0,0,0,107.419,77.994Z" transform="translate(-44.705 -31.212)" fill="#a27b30"/>
    <path id="Path_50571" data-name="Path 50571" d="M107.376,54.437A2.219,2.219,0,1,0,107.319,50a2.259,2.259,0,0,0-2.219,2.219A2.31,2.31,0,0,0,107.376,54.437Z" transform="translate(-44.662 -21.081)" fill="#a27b30"/>
    <path id="Path_50572" data-name="Path 50572" d="M105.2,264.919a2.186,2.186,0,0,0,2.219,2.219,2.219,2.219,0,1,0-2.219-2.219Z" transform="translate(-44.705 -112.776)" fill="#a27b30"/>
    <path id="Path_50573" data-name="Path 50573" d="M105.2,194.019a2.247,2.247,0,0,0,4.494-.057,2.21,2.21,0,0,0-2.219-2.162A2.234,2.234,0,0,0,105.2,194.019Z" transform="translate(-44.705 -82.211)" fill="#a27b30"/>
    <path id="Path_50574" data-name="Path 50574" d="M107.419,26.3a2.248,2.248,0,1,0,2.219,2.276A2.234,2.234,0,0,0,107.419,26.3Z" transform="translate(-44.705 -10.864)" fill="#a27b30"/>
    <path id="Path_50575" data-name="Path 50575" d="M93.6,253.2a2.065,2.065,0,0,0,2.1,2.1,2.032,2.032,0,0,0,2.1-2.1,2.1,2.1,0,1,0-4.21,0Z" transform="translate(-39.704 -107.775)" fill="#a27b30"/>
    <path id="Path_50576" data-name="Path 50576" d="M95.7,14.7a2.065,2.065,0,0,0-2.1,2.1,2.113,2.113,0,0,0,2.162,2.1,2.017,2.017,0,0,0,2.048-2.1A2.1,2.1,0,0,0,95.7,14.7Z" transform="translate(-39.704 -5.863)" fill="#a27b30"/>
    <path id="Path_50577" data-name="Path 50577" d="M95.646,180.2a2.017,2.017,0,0,0-2.048,2.1,2.105,2.105,0,1,0,4.21-.057A2.139,2.139,0,0,0,95.646,180.2Z" transform="translate(-39.702 -77.21)" fill="#a27b30"/>
    <path id="Path_50578" data-name="Path 50578" d="M95.662,89.81a2.065,2.065,0,0,0,2.1-2.1,2.134,2.134,0,0,0-4.267,0A2.149,2.149,0,0,0,95.662,89.81Z" transform="translate(-39.661 -36.428)" fill="#a27b30"/>
    <path id="Path_50579" data-name="Path 50579" d="M93.6,158.7a2.065,2.065,0,0,0,2.1,2.1,2.113,2.113,0,0,0,2.1-2.162,2.017,2.017,0,0,0-2.1-2.048A2.065,2.065,0,0,0,93.6,158.7Z" transform="translate(-39.704 -67.034)" fill="#a27b30"/>
    <path id="Path_50580" data-name="Path 50580" d="M93.6,135a2.065,2.065,0,0,0,2.1,2.1,2.113,2.113,0,0,0,2.1-2.162,2.017,2.017,0,0,0-2.1-2.048A2.1,2.1,0,0,0,93.6,135Z" transform="translate(-39.704 -56.817)" fill="#a27b30"/>
    <path id="Path_50581" data-name="Path 50581" d="M95.7,113.51a2.065,2.065,0,0,0,2.1-2.1,2.113,2.113,0,0,0-2.162-2.1,2.017,2.017,0,0,0-2.048,2.1A2.065,2.065,0,0,0,95.7,113.51Z" transform="translate(-39.702 -46.645)" fill="#a27b30"/>
    <path id="Path_50582" data-name="Path 50582" d="M93.6,64.1a2.065,2.065,0,0,0,2.1,2.1,2.113,2.113,0,0,0,2.1-2.162A2.017,2.017,0,0,0,95.7,62,2.065,2.065,0,0,0,93.6,64.1Z" transform="translate(-39.704 -26.252)" fill="#a27b30"/>
    <path id="Path_50583" data-name="Path 50583" d="M95.7,38.3a2.065,2.065,0,0,0-2.1,2.1,2.032,2.032,0,0,0,2.1,2.1,2.1,2.1,0,0,0,0-4.21Z" transform="translate(-39.704 -16.037)" fill="#a27b30"/>
    <path id="Path_50584" data-name="Path 50584" d="M95.548,208.01a2.022,2.022,0,0,0,2.162-1.991,2.107,2.107,0,1,0-2.162,1.991Z" transform="translate(-39.661 -87.384)" fill="#a27b30"/>
    <path id="Path_50585" data-name="Path 50585" d="M93.6,229.6a2.065,2.065,0,0,0,2.1,2.1,2.113,2.113,0,0,0,2.1-2.162,2.017,2.017,0,0,0-2.1-2.048A2.065,2.065,0,0,0,93.6,229.6Z" transform="translate(-39.704 -97.599)" fill="#a27b30"/>
    <path id="Path_50586" data-name="Path 50586" d="M95.7,279.01a2.065,2.065,0,0,0,2.1-2.1,2.113,2.113,0,0,0-2.162-2.1,2.017,2.017,0,0,0-2.048,2.1A2.065,2.065,0,0,0,95.7,279.01Z" transform="translate(-39.702 -117.992)" fill="#a27b30"/>
    <path id="Path_50587" data-name="Path 50587" d="M82,28.691a1.967,1.967,0,0,0,1.934,1.991,1.944,1.944,0,0,0,1.991-1.991,1.963,1.963,0,1,0-3.925,0Z" transform="translate(-34.703 -11.036)" fill="#a27b30"/>
    <path id="Path_50588" data-name="Path 50588" d="M83.991,243.482a1.9,1.9,0,0,0,1.934-1.991,1.963,1.963,0,1,0-3.925,0A1.944,1.944,0,0,0,83.991,243.482Z" transform="translate(-34.703 -102.774)" fill="#a27b30"/>
    <path id="Path_50589" data-name="Path 50589" d="M84.032,54.282A1.992,1.992,0,1,0,82.1,52.291,1.866,1.866,0,0,0,84.032,54.282Z" transform="translate(-34.745 -21.21)" fill="#a27b30"/>
    <path id="Path_50590" data-name="Path 50590" d="M83.891,74a1.992,1.992,0,1,0,1.934,1.991A1.866,1.866,0,0,0,83.891,74Z" transform="translate(-34.66 -31.427)" fill="#a27b30"/>
    <path id="Path_50591" data-name="Path 50591" d="M83.991,263.2A1.967,1.967,0,0,0,82,265.134a1.944,1.944,0,0,0,1.991,1.991,1.979,1.979,0,0,0,1.991-1.991A2,2,0,0,0,83.991,263.2Z" transform="translate(-34.703 -112.991)" fill="#a27b30"/>
    <path id="Path_50592" data-name="Path 50592" d="M85.882,123.291a1.992,1.992,0,1,0-1.991,1.934A1.932,1.932,0,0,0,85.882,123.291Z" transform="translate(-34.66 -51.818)" fill="#a27b30"/>
    <path id="Path_50593" data-name="Path 50593" d="M82,99.732A1.992,1.992,0,1,0,83.991,97.8,1.866,1.866,0,0,0,82,99.732Z" transform="translate(-34.703 -41.685)" fill="#a27b30"/>
    <path id="Path_50594" data-name="Path 50594" d="M82,146.934a1.979,1.979,0,0,0,1.991,1.991,1.944,1.944,0,0,0,1.991-1.991A1.967,1.967,0,0,0,83.991,145,1.932,1.932,0,0,0,82,146.934Z" transform="translate(-34.703 -62.035)" fill="#a27b30"/>
    <path id="Path_50595" data-name="Path 50595" d="M84.032,172.482a1.979,1.979,0,0,0,1.991-1.991,1.944,1.944,0,0,0-1.991-1.991,1.967,1.967,0,0,0-1.934,1.991A1.866,1.866,0,0,0,84.032,172.482Z" transform="translate(-34.745 -72.166)" fill="#a27b30"/>
    <path id="Path_50596" data-name="Path 50596" d="M82,194.232a1.967,1.967,0,0,0,1.934,1.991,1.944,1.944,0,0,0,1.991-1.991,1.967,1.967,0,0,0-1.991-1.934A1.884,1.884,0,0,0,82,194.232Z" transform="translate(-34.703 -82.424)" fill="#a27b30"/>
    <path id="Path_50597" data-name="Path 50597" d="M84.032,219.782a1.979,1.979,0,0,0,1.991-1.991,1.944,1.944,0,0,0-1.991-1.991,1.967,1.967,0,0,0-1.934,1.991A1.866,1.866,0,0,0,84.032,219.782Z" transform="translate(-34.745 -92.557)" fill="#a27b30"/>
    <path id="Path_50598" data-name="Path 50598" d="M84.032,7.082A1.992,1.992,0,1,0,82.1,5.091,1.9,1.9,0,0,0,84.032,7.082Z" transform="translate(-34.745 -0.862)" fill="#a27b30"/>
    <path id="Path_50599" data-name="Path 50599" d="M74.1,87.918A1.81,1.81,0,0,0,72.22,86.1a1.878,1.878,0,0,0,.057,3.755A1.934,1.934,0,0,0,74.1,87.918Z" transform="translate(-29.703 -36.641)" fill="#a27b30"/>
    <path id="Path_50600" data-name="Path 50600" d="M72.277,227.9a1.858,1.858,0,0,0-1.877,1.877,1.878,1.878,0,0,0,3.755.057A1.944,1.944,0,0,0,72.277,227.9Z" transform="translate(-29.703 -97.773)" fill="#a27b30"/>
    <path id="Path_50601" data-name="Path 50601" d="M72.218,278.855a1.877,1.877,0,1,0,0-3.755,1.833,1.833,0,0,0-1.82,1.82A1.794,1.794,0,0,0,72.218,278.855Z" transform="translate(-29.701 -118.121)" fill="#a27b30"/>
    <path id="Path_50602" data-name="Path 50602" d="M72.22,207.955a1.877,1.877,0,0,0,0-3.755,1.833,1.833,0,0,0-1.82,1.82A1.86,1.86,0,0,0,72.22,207.955Z" transform="translate(-29.703 -87.556)" fill="#a27b30"/>
    <path id="Path_50603" data-name="Path 50603" d="M72.318,255.3a1.894,1.894,0,0,0,1.877-1.877,1.81,1.81,0,0,0-1.877-1.82,1.846,1.846,0,0,0-1.82,1.877A1.762,1.762,0,0,0,72.318,255.3Z" transform="translate(-29.744 -107.988)" fill="#a27b30"/>
    <path id="Path_50604" data-name="Path 50604" d="M70.4,64.318A1.894,1.894,0,0,0,72.277,66.2a1.81,1.81,0,0,0,1.82-1.877A1.846,1.846,0,0,0,72.22,62.5,1.763,1.763,0,0,0,70.4,64.318Z" transform="translate(-29.703 -26.467)" fill="#a27b30"/>
    <path id="Path_50605" data-name="Path 50605" d="M72.318,137.1a1.894,1.894,0,0,0,1.877-1.877,1.81,1.81,0,0,0-1.877-1.82,1.846,1.846,0,0,0-1.82,1.877A1.762,1.762,0,0,0,72.318,137.1Z" transform="translate(-29.744 -57.032)" fill="#a27b30"/>
    <path id="Path_50606" data-name="Path 50606" d="M70.4,111.618a1.894,1.894,0,0,0,1.877,1.877,1.81,1.81,0,0,0,1.82-1.877,1.846,1.846,0,0,0-1.877-1.82A1.731,1.731,0,0,0,70.4,111.618Z" transform="translate(-29.703 -46.858)" fill="#a27b30"/>
    <path id="Path_50607" data-name="Path 50607" d="M72.177,38.8A1.894,1.894,0,0,0,70.3,40.677a1.81,1.81,0,0,0,1.877,1.82A1.846,1.846,0,0,0,74,40.62,1.731,1.731,0,0,0,72.177,38.8Z" transform="translate(-29.66 -16.252)" fill="#a27b30"/>
    <path id="Path_50608" data-name="Path 50608" d="M70.4,158.918a1.894,1.894,0,0,0,1.877,1.877,1.81,1.81,0,0,0,1.82-1.877,1.846,1.846,0,0,0-1.877-1.82A1.731,1.731,0,0,0,70.4,158.918Z" transform="translate(-29.703 -67.249)" fill="#a27b30"/>
    <path id="Path_50609" data-name="Path 50609" d="M70.4,182.477a1.858,1.858,0,0,0,1.877,1.877,1.878,1.878,0,0,0,.057-3.755A1.871,1.871,0,0,0,70.4,182.477Z" transform="translate(-29.703 -77.382)" fill="#a27b30"/>
    <path id="Path_50610" data-name="Path 50610" d="M72.218,18.855a1.877,1.877,0,1,0,0-3.755,1.878,1.878,0,0,0,0,3.755Z" transform="translate(-29.701 -6.035)" fill="#a27b30"/>
    <path id="Path_50611" data-name="Path 50611" d="M60.507,169a1.75,1.75,0,0,0-1.707,1.707,1.772,1.772,0,0,0,1.764,1.764,1.75,1.75,0,0,0,1.707-1.707A1.811,1.811,0,0,0,60.507,169Z" transform="translate(-24.702 -72.382)" fill="#a27b30"/>
    <path id="Path_50612" data-name="Path 50612" d="M58.8,147.164a1.75,1.75,0,0,0,1.707,1.707,1.69,1.69,0,0,0,1.707-1.764A1.8,1.8,0,0,0,60.45,145.4,1.715,1.715,0,0,0,58.8,147.164Z" transform="translate(-24.702 -62.208)" fill="#a27b30"/>
    <path id="Path_50613" data-name="Path 50613" d="M60.547,30.67a1.8,1.8,0,0,0,1.764-1.707,1.707,1.707,0,1,0-3.413-.057A1.71,1.71,0,0,0,60.547,30.67Z" transform="translate(-24.743 -11.252)" fill="#a27b30"/>
    <path id="Path_50614" data-name="Path 50614" d="M58.8,241.664a1.75,1.75,0,0,0,1.707,1.707,1.69,1.69,0,0,0,1.707-1.764A1.762,1.762,0,0,0,60.45,239.9,1.792,1.792,0,0,0,58.8,241.664Z" transform="translate(-24.702 -102.946)" fill="#a27b30"/>
    <path id="Path_50615" data-name="Path 50615" d="M60.507,263.6a1.75,1.75,0,0,0-1.707,1.707,1.69,1.69,0,0,0,1.764,1.707,1.762,1.762,0,0,0,1.707-1.764A1.792,1.792,0,0,0,60.507,263.6Z" transform="translate(-24.702 -113.163)" fill="#a27b30"/>
    <path id="Path_50616" data-name="Path 50616" d="M62.168,194.307A1.8,1.8,0,0,0,60.4,192.6a1.707,1.707,0,1,0,.057,3.413A1.584,1.584,0,0,0,62.168,194.307Z" transform="translate(-24.657 -82.555)" fill="#a27b30"/>
    <path id="Path_50617" data-name="Path 50617" d="M60.507,121.8a1.75,1.75,0,0,0-1.707,1.707,1.772,1.772,0,0,0,1.764,1.764,1.75,1.75,0,0,0,1.707-1.707A1.772,1.772,0,0,0,60.507,121.8Z" transform="translate(-24.702 -52.034)" fill="#a27b30"/>
    <path id="Path_50618" data-name="Path 50618" d="M58.8,76.164a1.75,1.75,0,0,0,1.707,1.707,1.772,1.772,0,0,0,1.764-1.764A1.75,1.75,0,0,0,60.564,74.4,1.851,1.851,0,0,0,58.8,76.164Z" transform="translate(-24.702 -31.6)" fill="#a27b30"/>
    <path id="Path_50619" data-name="Path 50619" d="M58.8,218.064a1.75,1.75,0,0,0,1.707,1.707,1.723,1.723,0,0,0,1.707-1.764,1.707,1.707,0,1,0-3.413.057Z" transform="translate(-24.702 -92.773)" fill="#a27b30"/>
    <path id="Path_50620" data-name="Path 50620" d="M60.464,50.8A1.8,1.8,0,0,0,58.7,52.507a1.772,1.772,0,0,0,1.764,1.764,1.75,1.75,0,0,0,1.707-1.707A1.724,1.724,0,0,0,60.464,50.8Z" transform="translate(-24.659 -21.426)" fill="#a27b30"/>
    <path id="Path_50621" data-name="Path 50621" d="M60.464,101.611A1.75,1.75,0,0,0,62.17,99.9,1.69,1.69,0,0,0,60.407,98.2,1.762,1.762,0,0,0,58.7,99.961,1.838,1.838,0,0,0,60.464,101.611Z" transform="translate(-24.659 -41.858)" fill="#a27b30"/>
    <path id="Path_50622" data-name="Path 50622" d="M60.464,7.011A1.75,1.75,0,0,0,62.17,5.3,1.69,1.69,0,0,0,60.407,3.6,1.762,1.762,0,0,0,58.7,5.361,1.792,1.792,0,0,0,60.464,7.011Z" transform="translate(-24.659 -1.076)" fill="#a27b30"/>
    <path id="Path_50623" data-name="Path 50623" d="M48.791,136.929a1.509,1.509,0,0,0,1.536-1.593,1.543,1.543,0,0,0-1.593-1.536,1.509,1.509,0,0,0-1.536,1.593A1.54,1.54,0,0,0,48.791,136.929Z" transform="translate(-19.699 -57.207)" fill="#a27b30"/>
    <path id="Path_50624" data-name="Path 50624" d="M47.3,206.393a1.579,1.579,0,0,0,1.593,1.536,1.543,1.543,0,0,0,1.536-1.593,1.579,1.579,0,0,0-1.593-1.536A1.478,1.478,0,0,0,47.3,206.393Z" transform="translate(-19.742 -87.815)" fill="#a27b30"/>
    <path id="Path_50625" data-name="Path 50625" d="M48.836,113.329a1.59,1.59,0,0,0,1.593-1.593,1.53,1.53,0,0,0-1.536-1.536,1.59,1.59,0,0,0-1.593,1.593A1.53,1.53,0,0,0,48.836,113.329Z" transform="translate(-19.744 -47.033)" fill="#a27b30"/>
    <path id="Path_50626" data-name="Path 50626" d="M47.3,253.634a1.509,1.509,0,0,0,1.593,1.536,1.53,1.53,0,0,0,1.536-1.536,1.565,1.565,0,0,0-3.129,0Z" transform="translate(-19.744 -108.204)" fill="#a27b30"/>
    <path id="Path_50627" data-name="Path 50627" d="M48.834,42.429a1.509,1.509,0,0,0,1.536-1.593A1.53,1.53,0,0,0,48.834,39.3,1.509,1.509,0,0,0,47.3,40.893,1.53,1.53,0,0,0,48.834,42.429Z" transform="translate(-19.742 -16.468)" fill="#a27b30"/>
    <path id="Path_50628" data-name="Path 50628" d="M48.791,160.629a1.509,1.509,0,0,0,1.536-1.593,1.543,1.543,0,0,0-1.593-1.536,1.509,1.509,0,0,0-1.536,1.593A1.617,1.617,0,0,0,48.791,160.629Z" transform="translate(-19.699 -67.424)" fill="#a27b30"/>
    <path id="Path_50629" data-name="Path 50629" d="M47.3,17.234a1.509,1.509,0,0,0,1.593,1.536,1.53,1.53,0,0,0,1.536-1.536,1.565,1.565,0,0,0-3.129,0Z" transform="translate(-19.744 -6.292)" fill="#a27b30"/>
    <path id="Path_50630" data-name="Path 50630" d="M48.834,86.6A1.509,1.509,0,0,0,47.3,88.193a1.53,1.53,0,0,0,1.536,1.536,1.509,1.509,0,0,0,1.536-1.593A1.53,1.53,0,0,0,48.834,86.6Z" transform="translate(-19.742 -36.859)" fill="#a27b30"/>
    <path id="Path_50631" data-name="Path 50631" d="M47.3,277.236a1.59,1.59,0,0,0,1.593,1.593,1.53,1.53,0,0,0,1.536-1.536,1.59,1.59,0,0,0-1.593-1.593A1.53,1.53,0,0,0,47.3,277.236Z" transform="translate(-19.744 -118.38)" fill="#a27b30"/>
    <path id="Path_50632" data-name="Path 50632" d="M50.329,230.034a1.509,1.509,0,0,0-1.593-1.536,1.53,1.53,0,0,0-1.536,1.536,1.565,1.565,0,0,0,3.129,0Z" transform="translate(-19.701 -98.03)" fill="#a27b30"/>
    <path id="Path_50633" data-name="Path 50633" d="M47.3,182.736a1.59,1.59,0,0,0,1.593,1.593,1.53,1.53,0,0,0,1.536-1.536,1.59,1.59,0,0,0-1.593-1.593A1.53,1.53,0,0,0,47.3,182.736Z" transform="translate(-19.744 -77.641)" fill="#a27b30"/>
    <path id="Path_50634" data-name="Path 50634" d="M50.329,64.534A1.509,1.509,0,0,0,48.736,63,1.543,1.543,0,0,0,47.2,64.591a1.509,1.509,0,0,0,1.593,1.536A1.577,1.577,0,0,0,50.329,64.534Z" transform="translate(-19.701 -26.683)" fill="#a27b30"/>
    <path id="Path_50635" data-name="Path 50635" d="M37.122,98.7a1.422,1.422,0,1,0,1.422,1.422A1.408,1.408,0,0,0,37.122,98.7Z" transform="translate(-14.744 -42.073)" fill="#a27b30"/>
    <path id="Path_50636" data-name="Path 50636" d="M37.122,125.145a1.422,1.422,0,1,0-1.422-1.422A1.445,1.445,0,0,0,37.122,125.145Z" transform="translate(-14.744 -52.249)" fill="#a27b30"/>
    <path id="Path_50637" data-name="Path 50637" d="M35.7,241.922a1.422,1.422,0,1,0,1.422-1.422A1.445,1.445,0,0,0,35.7,241.922Z" transform="translate(-14.744 -103.205)" fill="#a27b30"/>
    <path id="Path_50638" data-name="Path 50638" d="M37.122,145.9a1.422,1.422,0,1,0,1.422,1.422A1.529,1.529,0,0,0,37.122,145.9Z" transform="translate(-14.744 -62.423)" fill="#a27b30"/>
    <path id="Path_50639" data-name="Path 50639" d="M35.7,265.522a1.422,1.422,0,1,0,1.422-1.422A1.485,1.485,0,0,0,35.7,265.522Z" transform="translate(-14.744 -113.379)" fill="#a27b30"/>
    <path id="Path_50640" data-name="Path 50640" d="M35.7,170.922a1.422,1.422,0,1,0,1.422-1.422A1.529,1.529,0,0,0,35.7,170.922Z" transform="translate(-14.744 -72.597)" fill="#a27b30"/>
    <path id="Path_50641" data-name="Path 50641" d="M35.7,76.42A1.394,1.394,0,1,0,37.065,75,1.435,1.435,0,0,0,35.7,76.42Z" transform="translate(-14.744 -31.855)" fill="#a27b30"/>
    <path id="Path_50642" data-name="Path 50642" d="M37.122,54.245A1.422,1.422,0,1,0,35.7,52.822,1.485,1.485,0,0,0,37.122,54.245Z" transform="translate(-14.744 -21.684)" fill="#a27b30"/>
    <path id="Path_50643" data-name="Path 50643" d="M37.122,193.2a1.422,1.422,0,1,0,1.422,1.422A1.445,1.445,0,0,0,37.122,193.2Z" transform="translate(-14.744 -82.814)" fill="#a27b30"/>
    <path id="Path_50644" data-name="Path 50644" d="M35.7,29.122A1.422,1.422,0,1,0,37.122,27.7,1.445,1.445,0,0,0,35.7,29.122Z" transform="translate(-14.744 -11.467)" fill="#a27b30"/>
    <path id="Path_50645" data-name="Path 50645" d="M37.122,216.9a1.422,1.422,0,1,0,1.422,1.422A1.445,1.445,0,0,0,37.122,216.9Z" transform="translate(-14.744 -93.031)" fill="#a27b30"/>
    <path id="Path_50646" data-name="Path 50646" d="M37.022,6.945A1.422,1.422,0,1,0,35.6,5.522,1.578,1.578,0,0,0,37.022,6.945Z" transform="translate(-14.7 -1.293)" fill="#a27b30"/>
    <path id="Path_50647" data-name="Path 50647" d="M24.2,41.095A1.223,1.223,0,1,0,25.452,39.9,1.251,1.251,0,0,0,24.2,41.095Z" transform="translate(-9.786 -16.727)" fill="#a27b30"/>
    <path id="Path_50648" data-name="Path 50648" d="M25.395,184.189a1.195,1.195,0,1,0-1.195-1.195A1.241,1.241,0,0,0,25.395,184.189Z" transform="translate(-9.786 -77.9)" fill="#a27b30"/>
    <path id="Path_50649" data-name="Path 50649" d="M24.2,64.792A1.195,1.195,0,1,0,25.395,63.6,1.166,1.166,0,0,0,24.2,64.792Z" transform="translate(-9.786 -26.941)" fill="#a27b30"/>
    <path id="Path_50650" data-name="Path 50650" d="M25.495,205.4a1.195,1.195,0,1,0,1.195,1.195A1.241,1.241,0,0,0,25.495,205.4Z" transform="translate(-9.829 -88.074)" fill="#a27b30"/>
    <path id="Path_50651" data-name="Path 50651" d="M24.2,111.995a1.223,1.223,0,1,0,1.252-1.195A1.253,1.253,0,0,0,24.2,111.995Z" transform="translate(-9.786 -47.292)" fill="#a27b30"/>
    <path id="Path_50652" data-name="Path 50652" d="M25.495,87.2a1.195,1.195,0,1,0,1.195,1.195A1.241,1.241,0,0,0,25.495,87.2Z" transform="translate(-9.829 -37.118)" fill="#a27b30"/>
    <path id="Path_50653" data-name="Path 50653" d="M24.2,230.195A1.223,1.223,0,1,0,25.452,229,1.253,1.253,0,0,0,24.2,230.195Z" transform="translate(-9.786 -98.247)" fill="#a27b30"/>
    <path id="Path_50654" data-name="Path 50654" d="M24.2,253.895a1.223,1.223,0,1,0,1.252-1.195A1.215,1.215,0,0,0,24.2,253.895Z" transform="translate(-9.786 -108.465)" fill="#a27b30"/>
    <path id="Path_50655" data-name="Path 50655" d="M25.452,16.3A1.339,1.339,0,0,0,24.2,17.495a1.223,1.223,0,1,0,2.446.057A1.253,1.253,0,0,0,25.452,16.3Z" transform="translate(-9.786 -6.553)" fill="#a27b30"/>
    <path id="Path_50656" data-name="Path 50656" d="M25.395,276.3a1.223,1.223,0,1,0,1.252,1.195A1.253,1.253,0,0,0,25.395,276.3Z" transform="translate(-9.786 -118.638)" fill="#a27b30"/>
    <path id="Path_50657" data-name="Path 50657" d="M25.395,158.1a1.223,1.223,0,1,0,1.252,1.195A1.253,1.253,0,0,0,25.395,158.1Z" transform="translate(-9.786 -67.683)" fill="#a27b30"/>
    <path id="Path_50658" data-name="Path 50658" d="M24.2,135.652a1.223,1.223,0,1,0,1.195-1.252A1.339,1.339,0,0,0,24.2,135.652Z" transform="translate(-9.786 -57.466)" fill="#a27b30"/>
    <path id="Path_50659" data-name="Path 50659" d="M12.8,242.224a1,1,0,1,0,.967-1.024A1.094,1.094,0,0,0,12.8,242.224Z" transform="translate(-4.871 -103.507)" fill="#a27b30"/>
    <path id="Path_50660" data-name="Path 50660" d="M13.824,266.891a1,1,0,1,0-1.024-.967A1.008,1.008,0,0,0,13.824,266.891Z" transform="translate(-4.871 -113.724)" fill="#a27b30"/>
    <path id="Path_50661" data-name="Path 50661" d="M12.8,29.467a1.094,1.094,0,0,0,.967,1.024,1,1,0,1,0,.057-1.991A.973.973,0,0,0,12.8,29.467Z" transform="translate(-4.871 -11.812)" fill="#a27b30"/>
    <path id="Path_50662" data-name="Path 50662" d="M13.767,194a1,1,0,1,0,1.024.967A.973.973,0,0,0,13.767,194Z" transform="translate(-4.871 -83.159)" fill="#a27b30"/>
    <path id="Path_50663" data-name="Path 50663" d="M13.824,54.091a1,1,0,1,0-1.024-.967A1.009,1.009,0,0,0,13.824,54.091Z" transform="translate(-4.871 -21.986)" fill="#a27b30"/>
    <path id="Path_50664" data-name="Path 50664" d="M12.8,100.424a1,1,0,1,0,.967-1.024A1.009,1.009,0,0,0,12.8,100.424Z" transform="translate(-4.871 -42.377)" fill="#a27b30"/>
    <path id="Path_50665" data-name="Path 50665" d="M12.8,147.724a1,1,0,1,0,.967-1.024A1.009,1.009,0,0,0,12.8,147.724Z" transform="translate(-4.871 -62.768)" fill="#a27b30"/>
    <path id="Path_50666" data-name="Path 50666" d="M12.8,76.767a1.094,1.094,0,0,0,.967,1.024,1,1,0,1,0,.057-1.991A.973.973,0,0,0,12.8,76.767Z" transform="translate(-4.871 -32.203)" fill="#a27b30"/>
    <path id="Path_50667" data-name="Path 50667" d="M12.8,171.267a1.094,1.094,0,0,0,.967,1.024,1,1,0,1,0,.057-1.991A1.009,1.009,0,0,0,12.8,171.267Z" transform="translate(-4.871 -72.942)" fill="#a27b30"/>
    <path id="Path_50668" data-name="Path 50668" d="M13.824,217.6a1,1,0,1,0-.057,1.991,1.094,1.094,0,0,0,1.024-.967A1.009,1.009,0,0,0,13.824,217.6Z" transform="translate(-4.871 -93.333)" fill="#a27b30"/>
    <path id="Path_50669" data-name="Path 50669" d="M14.791,124.067a1,1,0,1,0-.967,1.024A1.094,1.094,0,0,0,14.791,124.067Z" transform="translate(-4.871 -52.594)" fill="#a27b30"/>
    <path id="Path_50670" data-name="Path 50670" d="M12.8,5.824A1,1,0,1,0,13.767,4.8,1.094,1.094,0,0,0,12.8,5.824Z" transform="translate(-4.871 -1.595)" fill="#a27b30"/>
    <path id="Path_50671" data-name="Path 50671" d="M2.226,18.6a.683.683,0,0,0,.683-.626.644.644,0,0,0-.626-.683.628.628,0,0,0-.683.683C1.6,18.319,1.828,18.547,2.226,18.6Z" transform="translate(-0.043 -6.979)" fill="#a27b30"/>
    <path id="Path_50672" data-name="Path 50672" d="M1.5,183.42a.683.683,0,0,0,.626.683.657.657,0,0,0,.683-.683.613.613,0,0,0-.683-.626C1.784,182.738,1.557,183.022,1.5,183.42Z" transform="translate(0 -78.325)" fill="#a27b30"/>
    <path id="Path_50673" data-name="Path 50673" d="M2.226,42.208a.683.683,0,0,0,.683-.626.657.657,0,0,0-.683-.683.613.613,0,0,0-.626.683C1.6,41.981,1.828,42.152,2.226,42.208Z" transform="translate(-0.043 -17.158)" fill="#a27b30"/>
    <path id="Path_50674" data-name="Path 50674" d="M2.908,277.983a.683.683,0,0,0-.626-.683.657.657,0,0,0-.683.683.613.613,0,0,0,.683.626C2.624,278.608,2.852,278.381,2.908,277.983Z" transform="translate(-0.043 -119.07)" fill="#a27b30"/>
    <path id="Path_50675" data-name="Path 50675" d="M2.183,253.6a.683.683,0,0,0-.683.626.657.657,0,0,0,.683.683.613.613,0,0,0,.626-.683C2.865,253.884,2.581,253.657,2.183,253.6Z" transform="translate(0 -108.853)" fill="#a27b30"/>
    <path id="Path_50676" data-name="Path 50676" d="M1.5,159.726a.683.683,0,0,0,.626.683.644.644,0,0,0,.683-.626.628.628,0,0,0-.683-.683C1.784,159.1,1.557,159.328,1.5,159.726Z" transform="translate(0 -68.114)" fill="#a27b30"/>
    <path id="Path_50677" data-name="Path 50677" d="M1.6,136.177a.6.6,0,0,0,.626.626.657.657,0,0,0,.683-.683c0-.4-.228-.626-.683-.626C1.884,135.438,1.6,135.722,1.6,136.177Z" transform="translate(-0.043 -57.934)" fill="#a27b30"/>
    <path id="Path_50678" data-name="Path 50678" d="M2.278,231.308c.341-.057.626-.228.626-.626A.657.657,0,0,0,2.221,230a.644.644,0,0,0-.626.683C1.538,231.024,1.88,231.308,2.278,231.308Z" transform="translate(-0.038 -98.679)" fill="#a27b30"/>
    <path id="Path_50679" data-name="Path 50679" d="M1.595,88.883a.684.684,0,0,0,.683.626.657.657,0,0,0,.683-.683.644.644,0,0,0-.683-.626C1.822,88.2,1.538,88.484,1.595,88.883Z" transform="translate(-0.038 -37.549)" fill="#a27b30"/>
    <path id="Path_50680" data-name="Path 50680" d="M1.5,65.183a.644.644,0,0,0,.683.626.61.61,0,0,0,.626-.683.644.644,0,0,0-.683-.626A.683.683,0,0,0,1.5,65.183Z" transform="translate(0 -27.332)" fill="#a27b30"/>
    <path id="Path_50681" data-name="Path 50681" d="M2.283,113.1a.731.731,0,0,0,.626-.683.61.61,0,0,0-.683-.626.644.644,0,0,0-.626.683A.613.613,0,0,0,2.283,113.1Z" transform="translate(-0.043 -47.717)" fill="#a27b30"/>
    <path id="Path_50682" data-name="Path 50682" d="M2.126,206.4c-.341.057-.626.228-.626.626a.657.657,0,0,0,.683.683.644.644,0,0,0,.626-.683C2.865,206.684,2.581,206.4,2.126,206.4Z" transform="translate(0 -88.505)" fill="#a27b30"/>
  </g>
</svg>
