<svg xmlns="http://www.w3.org/2000/svg" width="138.415" height="160.999" viewBox="0 0 138.415 160.999">
  <g id="dot-shape-left_1_" data-name="dot-shape-left (1)" transform="translate(-1.497 -1.1)">
    <path id="Path_50179" data-name="Path 50179" d="M7.985,110.5a3.193,3.193,0,0,1-3.243,3.186,3.243,3.243,0,1,1,0-6.485A3.327,3.327,0,0,1,7.985,110.5Z" transform="translate(-0.001 -45.74)" fill="#a27b30"/>
    <path id="Path_50180" data-name="Path 50180" d="M8.029,63.285a3.214,3.214,0,1,1-6.429,0A3.193,3.193,0,0,1,4.843,60.1,3.111,3.111,0,0,1,8.029,63.285Z" transform="translate(-0.044 -25.434)" fill="#a27b30"/>
    <path id="Path_50181" data-name="Path 50181" d="M8.029,39.543a3.214,3.214,0,1,1-6.429,0A3.23,3.23,0,0,1,4.786,36.3,3.317,3.317,0,0,1,8.029,39.543Z" transform="translate(-0.044 -15.175)" fill="#a27b30"/>
    <path id="Path_50182" data-name="Path 50182" d="M8.029,205.086a3.214,3.214,0,1,1-6.429,0A3.193,3.193,0,0,1,4.843,201.9,3.181,3.181,0,0,1,8.029,205.086Z" transform="translate(-0.044 -86.565)" fill="#a27b30"/>
    <path id="Path_50183" data-name="Path 50183" d="M8.027,157.8a3.193,3.193,0,0,1-3.243,3.186,3.172,3.172,0,0,1-3.186-3.3A3.23,3.23,0,0,1,4.841,154.5,3.279,3.279,0,0,1,8.027,157.8Z" transform="translate(-0.043 -66.131)" fill="#a27b30"/>
    <path id="Path_50184" data-name="Path 50184" d="M4.8,249.1a3.244,3.244,0,1,1-3.3,3.186A3.278,3.278,0,0,1,4.8,249.1Z" transform="translate(0 -106.913)" fill="#a27b30"/>
    <path id="Path_50185" data-name="Path 50185" d="M4.786,90.127A3.215,3.215,0,1,1,4.9,83.7a3.23,3.23,0,0,1,3.186,3.243A3.317,3.317,0,0,1,4.786,90.127Z" transform="translate(-0.044 -35.608)" fill="#a27b30"/>
    <path id="Path_50186" data-name="Path 50186" d="M7.985,181.485a3.278,3.278,0,0,1-3.243,3.243,3.214,3.214,0,1,1,0-6.429A3.158,3.158,0,0,1,7.985,181.485Z" transform="translate(-0.001 -76.39)" fill="#a27b30"/>
    <path id="Path_50187" data-name="Path 50187" d="M8.029,275.943A3.214,3.214,0,1,1,4.843,272.7,3.307,3.307,0,0,1,8.029,275.943Z" transform="translate(-0.044 -117.087)" fill="#a27b30"/>
    <path id="Path_50188" data-name="Path 50188" d="M4.743,231.929a3.214,3.214,0,1,1,0-6.429,3.193,3.193,0,0,1,3.186,3.243A3.111,3.111,0,0,1,4.743,231.929Z" transform="translate(-0.001 -96.739)" fill="#a27b30"/>
    <path id="Path_50189" data-name="Path 50189" d="M7.985,15.985a3.241,3.241,0,0,1-3.243,3.243,3.214,3.214,0,1,1,0-6.429A3.158,3.158,0,0,1,7.985,15.985Z" transform="translate(-0.001 -5.043)" fill="#a27b30"/>
    <path id="Path_50190" data-name="Path 50190" d="M4.843,137.429a3.214,3.214,0,1,1,0-6.429,3.23,3.23,0,0,1,3.243,3.186A3.317,3.317,0,0,1,4.843,137.429Z" transform="translate(-0.044 -56)" fill="#a27b30"/>
    <path id="Path_50191" data-name="Path 50191" d="M19.858,169.686a3.129,3.129,0,1,1-3.129-3.186A3.169,3.169,0,0,1,19.858,169.686Z" transform="translate(-5.218 -71.304)" fill="#a27b30"/>
    <path id="Path_50192" data-name="Path 50192" d="M16.629,149.115a3.158,3.158,0,1,1,3.129-3.186A3.032,3.032,0,0,1,16.629,149.115Z" transform="translate(-5.174 -61.087)" fill="#a27b30"/>
    <path id="Path_50193" data-name="Path 50193" d="M16.629,48.3a3.085,3.085,0,0,1,3.129,3.129,3.129,3.129,0,0,1-6.258,0A3.156,3.156,0,0,1,16.629,48.3Z" transform="translate(-5.174 -20.348)" fill="#a27b30"/>
    <path id="Path_50194" data-name="Path 50194" d="M16.629,125.515a3.158,3.158,0,0,1,.057-6.315,3.158,3.158,0,0,1-.057,6.315Z" transform="translate(-5.174 -50.913)" fill="#a27b30"/>
    <path id="Path_50195" data-name="Path 50195" d="M16.629,243.757a3.129,3.129,0,1,1,3.129-3.072A3.072,3.072,0,0,1,16.629,243.757Z" transform="translate(-5.174 -101.911)" fill="#a27b30"/>
    <path id="Path_50196" data-name="Path 50196" d="M13.5,75.071A3.051,3.051,0,0,1,16.686,72a3.119,3.119,0,0,1,3.072,3.186,3.158,3.158,0,0,1-3.186,3.072A3.121,3.121,0,0,1,13.5,75.071Z" transform="translate(-5.174 -30.564)" fill="#a27b30"/>
    <path id="Path_50197" data-name="Path 50197" d="M19.857,4.229a3.133,3.133,0,0,1-3.186,3.129A3.051,3.051,0,0,1,13.6,4.172a3.129,3.129,0,0,1,6.258.057Z" transform="translate(-5.216)" fill="#a27b30"/>
    <path id="Path_50198" data-name="Path 50198" d="M16.629,220.115a3.158,3.158,0,1,1,3.186-3.186A3.181,3.181,0,0,1,16.629,220.115Z" transform="translate(-5.174 -91.695)" fill="#a27b30"/>
    <path id="Path_50199" data-name="Path 50199" d="M16.586,24.7A3.158,3.158,0,1,1,13.4,27.886,3.256,3.256,0,0,1,16.586,24.7Z" transform="translate(-5.131 -10.174)" fill="#a27b30"/>
    <path id="Path_50200" data-name="Path 50200" d="M16.728,190.2a3.158,3.158,0,1,1-3.129,3.186A3.064,3.064,0,0,1,16.728,190.2Z" transform="translate(-5.216 -81.521)" fill="#a27b30"/>
    <path id="Path_50201" data-name="Path 50201" d="M16.686,261.1a3.158,3.158,0,1,1-3.186,3.186A3.181,3.181,0,0,1,16.686,261.1Z" transform="translate(-5.174 -112.086)" fill="#a27b30"/>
    <path id="Path_50202" data-name="Path 50202" d="M19.815,98.828A3.158,3.158,0,1,1,16.629,95.7,3.1,3.1,0,0,1,19.815,98.828Z" transform="translate(-5.174 -40.781)" fill="#a27b30"/>
    <path id="Path_50203" data-name="Path 50203" d="M28.572,113.744a3.072,3.072,0,1,1,3.072-3.072A3.134,3.134,0,0,1,28.572,113.744Z" transform="translate(-10.348 -45.912)" fill="#a27b30"/>
    <path id="Path_50204" data-name="Path 50204" d="M31.644,134.272a3.072,3.072,0,1,1-3.015-3.072A3.108,3.108,0,0,1,31.644,134.272Z" transform="translate(-10.348 -56.086)" fill="#a27b30"/>
    <path id="Path_50205" data-name="Path 50205" d="M31.643,228.872a3.108,3.108,0,0,1-3.129,3.072,3.046,3.046,0,0,1-3.015-3.072,3.072,3.072,0,1,1,6.144,0Z" transform="translate(-10.346 -96.868)" fill="#a27b30"/>
    <path id="Path_50206" data-name="Path 50206" d="M28.572,13a3.108,3.108,0,0,1,3.072,3.129,3.011,3.011,0,0,1-3.072,3.015A3.108,3.108,0,0,1,25.5,16.015,3.048,3.048,0,0,1,28.572,13Z" transform="translate(-10.348 -5.13)" fill="#a27b30"/>
    <path id="Path_50207" data-name="Path 50207" d="M25.5,252.472a3.072,3.072,0,1,1,3.072,3.072A3.059,3.059,0,0,1,25.5,252.472Z" transform="translate(-10.348 -107.042)" fill="#a27b30"/>
    <path id="Path_50208" data-name="Path 50208" d="M31.644,276.072a3.059,3.059,0,0,1-3.072,3.072,3.1,3.1,0,0,1-3.072-3.072A3.059,3.059,0,0,1,28.572,273,3.215,3.215,0,0,1,31.644,276.072Z" transform="translate(-10.348 -117.216)" fill="#a27b30"/>
    <path id="Path_50209" data-name="Path 50209" d="M28.572,90.044A3.059,3.059,0,0,1,25.5,86.972,3.1,3.1,0,0,1,28.572,83.9a3.059,3.059,0,0,1,3.072,3.072A3.1,3.1,0,0,1,28.572,90.044Z" transform="translate(-10.348 -35.695)" fill="#a27b30"/>
    <path id="Path_50210" data-name="Path 50210" d="M28.572,36.6A3.072,3.072,0,1,1,25.5,39.672,3.1,3.1,0,0,1,28.572,36.6Z" transform="translate(-10.348 -15.304)" fill="#a27b30"/>
    <path id="Path_50211" data-name="Path 50211" d="M28.572,208.2a3.1,3.1,0,1,1,3.072-3.072A3.108,3.108,0,0,1,28.572,208.2Z" transform="translate(-10.348 -86.608)" fill="#a27b30"/>
    <path id="Path_50212" data-name="Path 50212" d="M31.643,157.972a3.108,3.108,0,0,1-3.129,3.072,3.046,3.046,0,0,1-3.015-3.072,3.108,3.108,0,0,1,3.129-3.072A3.048,3.048,0,0,1,31.643,157.972Z" transform="translate(-10.346 -66.303)" fill="#a27b30"/>
    <path id="Path_50213" data-name="Path 50213" d="M31.644,181.572a3.072,3.072,0,1,1-3.072-3.072A3.1,3.1,0,0,1,31.644,181.572Z" transform="translate(-10.348 -76.477)" fill="#a27b30"/>
    <path id="Path_50214" data-name="Path 50214" d="M31.644,63.372A3.072,3.072,0,1,1,28.572,60.3,3.1,3.1,0,0,1,31.644,63.372Z" transform="translate(-10.348 -25.521)" fill="#a27b30"/>
    <path id="Path_50215" data-name="Path 50215" d="M40.457,220.073a2.951,2.951,0,0,1-2.958-3.015,2.987,2.987,0,0,1,5.973,0A3.112,3.112,0,0,1,40.457,220.073Z" transform="translate(-15.52 -91.824)" fill="#a27b30"/>
    <path id="Path_50216" data-name="Path 50216" d="M43.373,28.015a2.987,2.987,0,0,1-3.015,2.958A3.023,3.023,0,0,1,37.4,27.958a2.987,2.987,0,1,1,5.973.057Z" transform="translate(-15.478 -10.303)" fill="#a27b30"/>
    <path id="Path_50217" data-name="Path 50217" d="M43.372,146.115a2.987,2.987,0,1,1-5.973-.057,3.012,3.012,0,0,1,2.958-2.958A3.073,3.073,0,0,1,43.372,146.115Z" transform="translate(-15.476 -61.216)" fill="#a27b30"/>
    <path id="Path_50218" data-name="Path 50218" d="M40.358,243.673a2.987,2.987,0,0,1-2.958-3.015,2.987,2.987,0,0,1,5.973.057A2.951,2.951,0,0,1,40.358,243.673Z" transform="translate(-15.478 -101.998)" fill="#a27b30"/>
    <path id="Path_50219" data-name="Path 50219" d="M43.373,264.415a2.951,2.951,0,0,1-3.015,2.958,2.987,2.987,0,1,1,3.015-2.958Z" transform="translate(-15.478 -112.215)" fill="#a27b30"/>
    <path id="Path_50220" data-name="Path 50220" d="M43.33,169.758a3.016,3.016,0,1,1-3.072-2.958A3.035,3.035,0,0,1,43.33,169.758Z" transform="translate(-15.435 -71.433)" fill="#a27b30"/>
    <path id="Path_50221" data-name="Path 50221" d="M40.457,54.573A2.951,2.951,0,0,1,37.5,51.558a2.987,2.987,0,1,1,5.973.057A3.062,3.062,0,0,1,40.457,54.573Z" transform="translate(-15.52 -20.477)" fill="#a27b30"/>
    <path id="Path_50222" data-name="Path 50222" d="M40.358,78.273A2.987,2.987,0,0,1,37.4,75.258a2.987,2.987,0,1,1,2.958,3.015Z" transform="translate(-15.478 -30.694)" fill="#a27b30"/>
    <path id="Path_50223" data-name="Path 50223" d="M43.373,4.315a2.987,2.987,0,0,1-3.015,2.958A3.023,3.023,0,0,1,37.4,4.258a2.987,2.987,0,1,1,5.973.057Z" transform="translate(-15.478 -0.086)" fill="#a27b30"/>
    <path id="Path_50224" data-name="Path 50224" d="M40.457,190.5a2.987,2.987,0,1,1-2.958,3.015A2.951,2.951,0,0,1,40.457,190.5Z" transform="translate(-15.52 -81.65)" fill="#a27b30"/>
    <path id="Path_50225" data-name="Path 50225" d="M43.372,122.515a2.987,2.987,0,0,1-5.973-.057,2.987,2.987,0,0,1,5.973.057Z" transform="translate(-15.476 -51.042)" fill="#a27b30"/>
    <path id="Path_50226" data-name="Path 50226" d="M43.373,98.915a2.987,2.987,0,0,1-3.015,2.958,2.987,2.987,0,0,1,.057-5.973A2.951,2.951,0,0,1,43.373,98.915Z" transform="translate(-15.478 -40.868)" fill="#a27b30"/>
    <path id="Path_50227" data-name="Path 50227" d="M52.3,184.6a2.865,2.865,0,0,1-2.9-2.844,2.9,2.9,0,1,1,2.9,2.844Z" transform="translate(-20.651 -76.606)" fill="#a27b30"/>
    <path id="Path_50228" data-name="Path 50228" d="M55.2,205.4a2.9,2.9,0,1,1-5.8-.057,2.879,2.879,0,0,1,2.958-2.844A2.83,2.83,0,0,1,55.2,205.4Z" transform="translate(-20.651 -86.823)" fill="#a27b30"/>
    <path id="Path_50229" data-name="Path 50229" d="M52.3,231.9a2.865,2.865,0,0,1-2.9-2.845,2.9,2.9,0,1,1,2.9,2.845Z" transform="translate(-20.651 -96.997)" fill="#a27b30"/>
    <path id="Path_50230" data-name="Path 50230" d="M55.2,63.5a2.877,2.877,0,0,1-2.9,2.9,2.842,2.842,0,0,1-2.9-2.9,2.9,2.9,0,1,1,5.8,0Z" transform="translate(-20.65 -25.65)" fill="#a27b30"/>
    <path id="Path_50231" data-name="Path 50231" d="M52.3,155.1a2.865,2.865,0,0,1,2.9,2.845,2.9,2.9,0,1,1-2.9-2.845Z" transform="translate(-20.651 -66.389)" fill="#a27b30"/>
    <path id="Path_50232" data-name="Path 50232" d="M55.2,110.7a2.9,2.9,0,1,1-5.8,0,2.914,2.914,0,0,1,2.9-2.9A2.951,2.951,0,0,1,55.2,110.7Z" transform="translate(-20.651 -45.998)" fill="#a27b30"/>
    <path id="Path_50233" data-name="Path 50233" d="M55.2,39.9a2.9,2.9,0,1,1-5.8-.057,2.9,2.9,0,0,1,5.8.057Z" transform="translate(-20.651 -15.476)" fill="#a27b30"/>
    <path id="Path_50234" data-name="Path 50234" d="M52.3,90a2.914,2.914,0,0,1-2.9-2.9,2.877,2.877,0,0,1,2.9-2.9,2.914,2.914,0,0,1,2.9,2.9A2.877,2.877,0,0,1,52.3,90Z" transform="translate(-20.651 -35.824)" fill="#a27b30"/>
    <path id="Path_50235" data-name="Path 50235" d="M55.2,134.4a2.865,2.865,0,0,1-2.845,2.9,2.9,2.9,0,1,1,2.845-2.9Z" transform="translate(-20.651 -56.215)" fill="#a27b30"/>
    <path id="Path_50236" data-name="Path 50236" d="M55.2,252.6a2.9,2.9,0,1,1-5.8-.057,2.83,2.83,0,0,1,2.9-2.844A2.914,2.914,0,0,1,55.2,252.6Z" transform="translate(-20.651 -107.17)" fill="#a27b30"/>
    <path id="Path_50237" data-name="Path 50237" d="M55.2,16.2a2.865,2.865,0,0,1-2.845,2.9A2.9,2.9,0,1,1,55.2,16.2Z" transform="translate(-20.651 -5.259)" fill="#a27b30"/>
    <path id="Path_50238" data-name="Path 50238" d="M55.2,276.2a2.865,2.865,0,0,1-2.845,2.9,2.9,2.9,0,1,1,2.845-2.9Z" transform="translate(-20.651 -117.345)" fill="#a27b30"/>
    <path id="Path_50239" data-name="Path 50239" d="M67.032,240.845a2.736,2.736,0,0,1-2.845,2.788,2.816,2.816,0,0,1,0-5.632A2.817,2.817,0,0,1,67.032,240.845Z" transform="translate(-25.824 -102.127)" fill="#a27b30"/>
    <path id="Path_50240" data-name="Path 50240" d="M64.145,96.2A2.816,2.816,0,1,1,61.3,99.045,2.89,2.89,0,0,1,64.145,96.2Z" transform="translate(-25.781 -40.998)" fill="#a27b30"/>
    <path id="Path_50241" data-name="Path 50241" d="M64.145,1.6a2.736,2.736,0,0,1,2.788,2.845,2.816,2.816,0,0,1-5.632,0A2.89,2.89,0,0,1,64.145,1.6Z" transform="translate(-25.781 -0.216)" fill="#a27b30"/>
    <path id="Path_50242" data-name="Path 50242" d="M67.032,51.745a2.77,2.77,0,0,1-2.845,2.788,2.816,2.816,0,1,1,2.845-2.788Z" transform="translate(-25.824 -20.607)" fill="#a27b30"/>
    <path id="Path_50243" data-name="Path 50243" d="M64.145,143.5a2.816,2.816,0,1,1-2.845,2.845A2.89,2.89,0,0,1,64.145,143.5Z" transform="translate(-25.781 -61.389)" fill="#a27b30"/>
    <path id="Path_50244" data-name="Path 50244" d="M64.145,214.4a2.816,2.816,0,1,1-2.845,2.845A2.89,2.89,0,0,1,64.145,214.4Z" transform="translate(-25.781 -91.953)" fill="#a27b30"/>
    <path id="Path_50245" data-name="Path 50245" d="M67.075,122.686a2.8,2.8,0,0,1-2.788,2.844,2.816,2.816,0,1,1,2.788-2.844Z" transform="translate(-25.867 -51.213)" fill="#a27b30"/>
    <path id="Path_50246" data-name="Path 50246" d="M64.188,167.1a2.817,2.817,0,0,1,2.845,2.845,2.816,2.816,0,1,1-2.845-2.845Z" transform="translate(-25.824 -71.562)" fill="#a27b30"/>
    <path id="Path_50247" data-name="Path 50247" d="M64.188,30.932a2.816,2.816,0,1,1,2.845-2.845A2.817,2.817,0,0,1,64.188,30.932Z" transform="translate(-25.824 -10.433)" fill="#a27b30"/>
    <path id="Path_50248" data-name="Path 50248" d="M67.075,75.386a2.8,2.8,0,0,1-2.788,2.845,2.816,2.816,0,1,1,2.788-2.845Z" transform="translate(-25.867 -30.822)" fill="#a27b30"/>
    <path id="Path_50249" data-name="Path 50249" d="M64.186,196.432a2.736,2.736,0,0,1-2.788-2.845,2.816,2.816,0,0,1,5.632,0A2.817,2.817,0,0,1,64.186,196.432Z" transform="translate(-25.823 -81.78)" fill="#a27b30"/>
    <path id="Path_50250" data-name="Path 50250" d="M64.188,261.7a2.8,2.8,0,0,1,2.845,2.788,2.816,2.816,0,1,1-2.845-2.788Z" transform="translate(-25.824 -112.344)" fill="#a27b30"/>
    <path id="Path_50251" data-name="Path 50251" d="M78.8,229.088a2.615,2.615,0,0,1-2.731,2.674,2.731,2.731,0,0,1,.057-5.461A2.77,2.77,0,0,1,78.8,229.088Z" transform="translate(-30.996 -97.084)" fill="#a27b30"/>
    <path id="Path_50252" data-name="Path 50252" d="M78.8,63.588a2.7,2.7,0,1,1-5.4-.114A2.684,2.684,0,0,1,76.129,60.8,2.77,2.77,0,0,1,78.8,63.588Z" transform="translate(-30.996 -25.737)" fill="#a27b30"/>
    <path id="Path_50253" data-name="Path 50253" d="M76.072,19.1A2.648,2.648,0,0,1,73.4,16.374a2.731,2.731,0,0,1,5.461.057A2.77,2.77,0,0,1,76.072,19.1Z" transform="translate(-30.996 -5.432)" fill="#a27b30"/>
    <path id="Path_50254" data-name="Path 50254" d="M78.8,110.888a2.615,2.615,0,0,1-2.731,2.674,2.731,2.731,0,0,1,.057-5.461A2.77,2.77,0,0,1,78.8,110.888Z" transform="translate(-30.996 -46.128)" fill="#a27b30"/>
    <path id="Path_50255" data-name="Path 50255" d="M78.8,158.188a2.615,2.615,0,0,1-2.731,2.674,2.731,2.731,0,0,1,.057-5.461A2.77,2.77,0,0,1,78.8,158.188Z" transform="translate(-30.996 -66.519)" fill="#a27b30"/>
    <path id="Path_50256" data-name="Path 50256" d="M78.8,181.788a2.7,2.7,0,1,1-5.4-.114A2.684,2.684,0,0,1,76.129,179,2.77,2.77,0,0,1,78.8,181.788Z" transform="translate(-30.996 -76.693)" fill="#a27b30"/>
    <path id="Path_50257" data-name="Path 50257" d="M76.031,37.3a2.731,2.731,0,0,1,0,5.461A2.758,2.758,0,0,1,73.3,40.088,2.709,2.709,0,0,1,76.031,37.3Z" transform="translate(-30.954 -15.606)" fill="#a27b30"/>
    <path id="Path_50258" data-name="Path 50258" d="M78.8,134.588a2.648,2.648,0,0,1-2.731,2.674,2.731,2.731,0,0,1,.057-5.461A2.733,2.733,0,0,1,78.8,134.588Z" transform="translate(-30.997 -56.345)" fill="#a27b30"/>
    <path id="Path_50259" data-name="Path 50259" d="M78.761,252.731a2.731,2.731,0,0,1-5.461,0A2.758,2.758,0,0,1,75.974,250,2.709,2.709,0,0,1,78.761,252.731Z" transform="translate(-30.954 -107.301)" fill="#a27b30"/>
    <path id="Path_50260" data-name="Path 50260" d="M76.074,202.8a2.731,2.731,0,1,1-2.674,2.788A2.7,2.7,0,0,1,76.074,202.8Z" transform="translate(-30.997 -86.953)" fill="#a27b30"/>
    <path id="Path_50261" data-name="Path 50261" d="M76.074,84.6A2.7,2.7,0,0,1,78.8,87.329,2.615,2.615,0,0,1,76.074,90,2.684,2.684,0,0,1,73.4,87.272,2.635,2.635,0,0,1,76.074,84.6Z" transform="translate(-30.997 -35.995)" fill="#a27b30"/>
    <path id="Path_50262" data-name="Path 50262" d="M78.8,276.388a2.615,2.615,0,0,1-2.731,2.674,2.731,2.731,0,0,1,.057-5.461A2.77,2.77,0,0,1,78.8,276.388Z" transform="translate(-30.996 -117.475)" fill="#a27b30"/>
    <path id="Path_50263" data-name="Path 50263" d="M87.974,214.7a2.617,2.617,0,1,1-2.674,2.56A2.688,2.688,0,0,1,87.974,214.7Z" transform="translate(-36.127 -92.083)" fill="#a27b30"/>
    <path id="Path_50264" data-name="Path 50264" d="M87.917,196.332a2.617,2.617,0,1,1,2.674-2.56A2.61,2.61,0,0,1,87.917,196.332Z" transform="translate(-36.127 -81.907)" fill="#a27b30"/>
    <path id="Path_50265" data-name="Path 50265" d="M90.591,75.474a2.575,2.575,0,0,1-2.617,2.617A2.671,2.671,0,0,1,85.3,75.417,2.61,2.61,0,0,1,87.917,72.8,2.708,2.708,0,0,1,90.591,75.474Z" transform="translate(-36.127 -30.91)" fill="#a27b30"/>
    <path id="Path_50266" data-name="Path 50266" d="M88.017,125.391a2.575,2.575,0,0,1-2.617-2.617,2.671,2.671,0,0,1,2.674-2.674,2.61,2.61,0,0,1,2.617,2.617A2.707,2.707,0,0,1,88.017,125.391Z" transform="translate(-36.17 -51.301)" fill="#a27b30"/>
    <path id="Path_50267" data-name="Path 50267" d="M90.591,170.074a2.575,2.575,0,0,1-2.617,2.617,2.671,2.671,0,0,1-2.674-2.674,2.61,2.61,0,0,1,2.617-2.617A2.708,2.708,0,0,1,90.591,170.074Z" transform="translate(-36.127 -71.692)" fill="#a27b30"/>
    <path id="Path_50268" data-name="Path 50268" d="M88.015,238.4a2.617,2.617,0,1,1-.057,5.234,2.575,2.575,0,0,1-2.56-2.674A2.528,2.528,0,0,1,88.015,238.4Z" transform="translate(-36.169 -102.298)" fill="#a27b30"/>
    <path id="Path_50269" data-name="Path 50269" d="M90.632,146.374a2.617,2.617,0,1,1-2.56-2.674A2.686,2.686,0,0,1,90.632,146.374Z" transform="translate(-36.169 -61.475)" fill="#a27b30"/>
    <path id="Path_50270" data-name="Path 50270" d="M90.632,264.674A2.617,2.617,0,1,1,88.072,262,2.61,2.61,0,0,1,90.632,264.674Z" transform="translate(-36.169 -112.474)" fill="#a27b30"/>
    <path id="Path_50271" data-name="Path 50271" d="M90.591,28.174a2.575,2.575,0,0,1-2.617,2.617A2.671,2.671,0,0,1,85.3,28.117,2.61,2.61,0,0,1,87.917,25.5,2.746,2.746,0,0,1,90.591,28.174Z" transform="translate(-36.127 -10.519)" fill="#a27b30"/>
    <path id="Path_50272" data-name="Path 50272" d="M87.917,54.532a2.617,2.617,0,1,1,.057-5.234,2.575,2.575,0,0,1,2.56,2.674A2.528,2.528,0,0,1,87.917,54.532Z" transform="translate(-36.127 -20.777)" fill="#a27b30"/>
    <path id="Path_50273" data-name="Path 50273" d="M90.632,99.215a2.617,2.617,0,1,1-5.234-.057,2.617,2.617,0,0,1,5.234.057Z" transform="translate(-36.169 -41.168)" fill="#a27b30"/>
    <path id="Path_50274" data-name="Path 50274" d="M90.591,4.615a2.575,2.575,0,0,1-2.617,2.617A2.671,2.671,0,0,1,85.3,4.559a2.646,2.646,0,0,1,5.291.057Z" transform="translate(-36.127 -0.387)" fill="#a27b30"/>
    <path id="Path_50275" data-name="Path 50275" d="M102.363,16.5a2.575,2.575,0,0,1-2.5,2.56,2.532,2.532,0,1,1,0-5.063A2.454,2.454,0,0,1,102.363,16.5Z" transform="translate(-41.301 -5.56)" fill="#a27b30"/>
    <path id="Path_50276" data-name="Path 50276" d="M102.32,229.26a2.5,2.5,0,0,1-2.56,2.5,2.532,2.532,0,1,1,0-5.063A2.548,2.548,0,0,1,102.32,229.26Z" transform="translate(-41.257 -97.256)" fill="#a27b30"/>
    <path id="Path_50277" data-name="Path 50277" d="M102.363,252.9a2.614,2.614,0,0,1-2.5,2.56,2.549,2.549,0,0,1-2.56-2.56,2.532,2.532,0,0,1,5.063,0Z" transform="translate(-41.301 -107.473)" fill="#a27b30"/>
    <path id="Path_50278" data-name="Path 50278" d="M99.9,179.4a2.575,2.575,0,0,1,2.56,2.5,2.549,2.549,0,0,1-2.56,2.56,2.5,2.5,0,0,1-2.5-2.56A2.454,2.454,0,0,1,99.9,179.4Z" transform="translate(-41.342 -76.865)" fill="#a27b30"/>
    <path id="Path_50279" data-name="Path 50279" d="M102.32,87.46a2.5,2.5,0,0,1-2.56,2.5,2.532,2.532,0,1,1,0-5.063A2.481,2.481,0,0,1,102.32,87.46Z" transform="translate(-41.257 -36.126)" fill="#a27b30"/>
    <path id="Path_50280" data-name="Path 50280" d="M99.9,61.2a2.575,2.575,0,0,1,2.56,2.5,2.549,2.549,0,0,1-2.56,2.56,2.5,2.5,0,0,1-2.5-2.56A2.454,2.454,0,0,1,99.9,61.2Z" transform="translate(-41.342 -25.909)" fill="#a27b30"/>
    <path id="Path_50281" data-name="Path 50281" d="M99.86,208.163a2.614,2.614,0,0,1-2.56-2.5,2.549,2.549,0,0,1,2.56-2.56,2.532,2.532,0,0,1,0,5.063Z" transform="translate(-41.301 -87.082)" fill="#a27b30"/>
    <path id="Path_50282" data-name="Path 50282" d="M102.363,111a2.575,2.575,0,0,1-2.5,2.56,2.532,2.532,0,1,1,2.5-2.56Z" transform="translate(-41.301 -46.3)" fill="#a27b30"/>
    <path id="Path_50283" data-name="Path 50283" d="M102.363,134.7a2.614,2.614,0,0,1-2.5,2.56,2.549,2.549,0,0,1-2.56-2.56,2.532,2.532,0,0,1,5.063,0Z" transform="translate(-41.301 -56.517)" fill="#a27b30"/>
    <path id="Path_50284" data-name="Path 50284" d="M102.363,158.3a2.614,2.614,0,0,1-2.5,2.56,2.549,2.549,0,0,1-2.56-2.56,2.532,2.532,0,0,1,5.063,0Z" transform="translate(-41.301 -66.691)" fill="#a27b30"/>
    <path id="Path_50285" data-name="Path 50285" d="M102.363,40.1a2.614,2.614,0,0,1-2.5,2.56A2.549,2.549,0,0,1,97.3,40.1a2.532,2.532,0,0,1,5.063,0Z" transform="translate(-41.301 -15.735)" fill="#a27b30"/>
    <path id="Path_50286" data-name="Path 50286" d="M99.86,279.063a2.575,2.575,0,0,1-2.56-2.5A2.549,2.549,0,0,1,99.86,274a2.532,2.532,0,0,1,0,5.063Z" transform="translate(-41.301 -117.647)" fill="#a27b30"/>
    <path id="Path_50287" data-name="Path 50287" d="M111.746,144.1a2.446,2.446,0,1,1-2.446,2.446A2.5,2.5,0,0,1,111.746,144.1Z" transform="translate(-46.474 -61.647)" fill="#a27b30"/>
    <path id="Path_50288" data-name="Path 50288" d="M111.788,172.734a2.418,2.418,0,1,1,2.446-2.389A2.453,2.453,0,0,1,111.788,172.734Z" transform="translate(-46.515 -71.906)" fill="#a27b30"/>
    <path id="Path_50289" data-name="Path 50289" d="M111.746,96.9a2.446,2.446,0,1,1-2.446,2.446A2.428,2.428,0,0,1,111.746,96.9Z" transform="translate(-46.474 -41.299)" fill="#a27b30"/>
    <path id="Path_50290" data-name="Path 50290" d="M109.3,4.631a2.419,2.419,0,1,1,2.332,2.5A2.384,2.384,0,0,1,109.3,4.631Z" transform="translate(-46.472 -0.516)" fill="#a27b30"/>
    <path id="Path_50291" data-name="Path 50291" d="M111.746,219.893a2.446,2.446,0,1,1,2.446-2.446A2.428,2.428,0,0,1,111.746,219.893Z" transform="translate(-46.474 -92.212)" fill="#a27b30"/>
    <path id="Path_50292" data-name="Path 50292" d="M114.234,52.045a2.418,2.418,0,1,1-2.389-2.446A2.453,2.453,0,0,1,114.234,52.045Z" transform="translate(-46.515 -20.907)" fill="#a27b30"/>
    <path id="Path_50293" data-name="Path 50293" d="M114.193,264.746a2.446,2.446,0,1,1-2.446-2.446A2.5,2.5,0,0,1,114.193,264.746Z" transform="translate(-46.474 -112.603)" fill="#a27b30"/>
    <path id="Path_50294" data-name="Path 50294" d="M111.745,191.4a2.418,2.418,0,1,1-2.446,2.389A2.453,2.453,0,0,1,111.745,191.4Z" transform="translate(-46.472 -82.038)" fill="#a27b30"/>
    <path id="Path_50295" data-name="Path 50295" d="M109.3,241.088a2.447,2.447,0,1,1,2.389,2.5A2.5,2.5,0,0,1,109.3,241.088Z" transform="translate(-46.474 -102.428)" fill="#a27b30"/>
    <path id="Path_50296" data-name="Path 50296" d="M111.788,25.9a2.418,2.418,0,1,1-2.389,2.446A2.414,2.414,0,0,1,111.788,25.9Z" transform="translate(-46.515 -10.691)" fill="#a27b30"/>
    <path id="Path_50297" data-name="Path 50297" d="M111.746,125.436a2.418,2.418,0,1,1,2.389-2.446A2.414,2.414,0,0,1,111.746,125.436Z" transform="translate(-46.474 -51.516)" fill="#a27b30"/>
    <path id="Path_50298" data-name="Path 50298" d="M114.193,75.646a2.446,2.446,0,1,1-2.446-2.446A2.464,2.464,0,0,1,114.193,75.646Z" transform="translate(-46.474 -31.082)" fill="#a27b30"/>
    <path id="Path_50299" data-name="Path 50299" d="M126.022,205.774a2.43,2.43,0,0,1-2.332,2.389,2.333,2.333,0,1,1-.057-4.665A2.344,2.344,0,0,1,126.022,205.774Z" transform="translate(-51.647 -87.253)" fill="#a27b30"/>
    <path id="Path_50300" data-name="Path 50300" d="M125.959,40.345A2.334,2.334,0,1,1,123.74,37.9,2.342,2.342,0,0,1,125.959,40.345Z" transform="translate(-51.641 -15.863)" fill="#a27b30"/>
    <path id="Path_50301" data-name="Path 50301" d="M126.022,111.174a2.431,2.431,0,0,1-2.332,2.389,2.333,2.333,0,1,1-.057-4.665A2.344,2.344,0,0,1,126.022,111.174Z" transform="translate(-51.647 -46.471)" fill="#a27b30"/>
    <path id="Path_50302" data-name="Path 50302" d="M123.674,14.3a2.431,2.431,0,0,1,2.389,2.332,2.333,2.333,0,1,1-4.665.057A2.274,2.274,0,0,1,123.674,14.3Z" transform="translate(-51.688 -5.691)" fill="#a27b30"/>
    <path id="Path_50303" data-name="Path 50303" d="M125.963,87.645a2.342,2.342,0,0,1-2.389,2.276,2.362,2.362,0,1,1,.171-4.722A2.348,2.348,0,0,1,125.963,87.645Z" transform="translate(-51.645 -36.254)" fill="#a27b30"/>
    <path id="Path_50304" data-name="Path 50304" d="M123.689,66.222a2.431,2.431,0,0,1-2.389-2.332,2.333,2.333,0,1,1,4.665-.057A2.309,2.309,0,0,1,123.689,66.222Z" transform="translate(-51.647 -26.038)" fill="#a27b30"/>
    <path id="Path_50305" data-name="Path 50305" d="M125.959,253.045a2.334,2.334,0,1,1-2.219-2.446A2.422,2.422,0,0,1,125.959,253.045Z" transform="translate(-51.641 -107.558)" fill="#a27b30"/>
    <path id="Path_50306" data-name="Path 50306" d="M125.959,158.545a2.334,2.334,0,1,1-2.219-2.446A2.342,2.342,0,0,1,125.959,158.545Z" transform="translate(-51.641 -66.819)" fill="#a27b30"/>
    <path id="Path_50307" data-name="Path 50307" d="M125.963,182.145a2.334,2.334,0,1,1-4.665-.171,2.392,2.392,0,0,1,2.446-2.276A2.422,2.422,0,0,1,125.963,182.145Z" transform="translate(-51.645 -76.993)" fill="#a27b30"/>
    <path id="Path_50308" data-name="Path 50308" d="M125.959,229.445A2.334,2.334,0,1,1,123.74,227,2.422,2.422,0,0,1,125.959,229.445Z" transform="translate(-51.641 -97.384)" fill="#a27b30"/>
    <path id="Path_50309" data-name="Path 50309" d="M126.022,134.874a2.431,2.431,0,0,1-2.332,2.389,2.333,2.333,0,1,1-.057-4.665A2.307,2.307,0,0,1,126.022,134.874Z" transform="translate(-51.647 -56.688)" fill="#a27b30"/>
    <path id="Path_50310" data-name="Path 50310" d="M126.022,276.674a2.431,2.431,0,0,1-2.332,2.389,2.333,2.333,0,1,1-.057-4.665A2.344,2.344,0,0,1,126.022,276.674Z" transform="translate(-51.647 -117.818)" fill="#a27b30"/>
    <path id="Path_50311" data-name="Path 50311" d="M135.519,172.637a2.219,2.219,0,1,1,.057-4.437,2.219,2.219,0,1,1-.057,4.437Z" transform="translate(-56.82 -72.037)" fill="#a27b30"/>
    <path id="Path_50312" data-name="Path 50312" d="M137.837,123.119a2.219,2.219,0,1,1-2.219-2.219A2.259,2.259,0,0,1,137.837,123.119Z" transform="translate(-56.863 -51.646)" fill="#a27b30"/>
    <path id="Path_50313" data-name="Path 50313" d="M135.476,144.5a2.219,2.219,0,1,1-.057,4.437,2.3,2.3,0,0,1-2.219-2.219A2.35,2.35,0,0,1,135.476,144.5Z" transform="translate(-56.777 -61.82)" fill="#a27b30"/>
    <path id="Path_50314" data-name="Path 50314" d="M135.56,215.4a2.27,2.27,0,0,1,2.276,2.219,2.186,2.186,0,0,1-2.219,2.219,2.219,2.219,0,0,1-.057-4.437Z" transform="translate(-56.861 -92.385)" fill="#a27b30"/>
    <path id="Path_50315" data-name="Path 50315" d="M137.836,4.919a2.234,2.234,0,0,1-2.276,2.219A2.153,2.153,0,0,1,133.4,4.862a2.219,2.219,0,0,1,4.437.057Z" transform="translate(-56.861 -0.69)" fill="#a27b30"/>
    <path id="Path_50316" data-name="Path 50316" d="M135.617,239.1a2.248,2.248,0,1,1-2.219,2.276A2.167,2.167,0,0,1,135.617,239.1Z" transform="translate(-56.862 -102.602)" fill="#a27b30"/>
    <path id="Path_50317" data-name="Path 50317" d="M137.836,99.517a2.234,2.234,0,0,1-2.276,2.219A2.153,2.153,0,0,1,133.4,99.46a2.248,2.248,0,0,1,2.219-2.162A2.186,2.186,0,0,1,137.836,99.517Z" transform="translate(-56.861 -41.47)" fill="#a27b30"/>
    <path id="Path_50318" data-name="Path 50318" d="M135.519,77.994a2.247,2.247,0,0,1,.057-4.494,2.248,2.248,0,0,1-.057,4.494Z" transform="translate(-56.82 -31.212)" fill="#a27b30"/>
    <path id="Path_50319" data-name="Path 50319" d="M135.519,54.437A2.219,2.219,0,1,1,135.576,50a2.219,2.219,0,1,1-.057,4.437Z" transform="translate(-56.82 -21.081)" fill="#a27b30"/>
    <path id="Path_50320" data-name="Path 50320" d="M137.837,264.919a2.186,2.186,0,0,1-2.219,2.219,2.219,2.219,0,1,1,0-4.437A2.259,2.259,0,0,1,137.837,264.919Z" transform="translate(-56.863 -112.776)" fill="#a27b30"/>
    <path id="Path_50321" data-name="Path 50321" d="M137.794,194.019a2.247,2.247,0,0,1-4.494-.057,2.21,2.21,0,0,1,2.219-2.162A2.271,2.271,0,0,1,137.794,194.019Z" transform="translate(-56.82 -82.211)" fill="#a27b30"/>
    <path id="Path_50322" data-name="Path 50322" d="M135.617,26.3a2.248,2.248,0,1,1-2.219,2.276A2.167,2.167,0,0,1,135.617,26.3Z" transform="translate(-56.862 -10.864)" fill="#a27b30"/>
    <path id="Path_50323" data-name="Path 50323" d="M149.608,253.2a2.065,2.065,0,0,1-2.1,2.1,2.032,2.032,0,0,1-2.1-2.1,2.065,2.065,0,0,1,2.1-2.1A2.1,2.1,0,0,1,149.608,253.2Z" transform="translate(-62.035 -107.775)" fill="#a27b30"/>
    <path id="Path_50324" data-name="Path 50324" d="M147.5,14.7a2.065,2.065,0,0,1,2.1,2.1,2.113,2.113,0,0,1-2.162,2.1,2.017,2.017,0,0,1-2.048-2.1A2.065,2.065,0,0,1,147.5,14.7Z" transform="translate(-62.035 -5.863)" fill="#a27b30"/>
    <path id="Path_50325" data-name="Path 50325" d="M147.462,180.2a2.017,2.017,0,0,1,2.048,2.1,2.105,2.105,0,1,1-4.21-.057A2.178,2.178,0,0,1,147.462,180.2Z" transform="translate(-61.993 -77.21)" fill="#a27b30"/>
    <path id="Path_50326" data-name="Path 50326" d="M147.5,89.81a2.065,2.065,0,0,1-2.1-2.1,2.134,2.134,0,0,1,4.267,0A2.187,2.187,0,0,1,147.5,89.81Z" transform="translate(-62.036 -36.428)" fill="#a27b30"/>
    <path id="Path_50327" data-name="Path 50327" d="M149.61,158.7a2.065,2.065,0,0,1-2.1,2.1,2.113,2.113,0,0,1-2.1-2.162,2.017,2.017,0,0,1,2.1-2.048A2.065,2.065,0,0,1,149.61,158.7Z" transform="translate(-62.036 -67.034)" fill="#a27b30"/>
    <path id="Path_50328" data-name="Path 50328" d="M149.61,135a2.065,2.065,0,0,1-2.1,2.1,2.113,2.113,0,0,1-2.1-2.162,2.017,2.017,0,0,1,2.1-2.048A2.1,2.1,0,0,1,149.61,135Z" transform="translate(-62.036 -56.817)" fill="#a27b30"/>
    <path id="Path_50329" data-name="Path 50329" d="M147.4,113.51a2.065,2.065,0,0,1-2.1-2.1,2.113,2.113,0,0,1,2.162-2.1,2.017,2.017,0,0,1,2.048,2.1A2.065,2.065,0,0,1,147.4,113.51Z" transform="translate(-61.993 -46.645)" fill="#a27b30"/>
    <path id="Path_50330" data-name="Path 50330" d="M149.61,64.1a2.065,2.065,0,0,1-2.1,2.1,2.113,2.113,0,0,1-2.1-2.162A2.017,2.017,0,0,1,147.5,62,2.065,2.065,0,0,1,149.61,64.1Z" transform="translate(-62.036 -26.252)" fill="#a27b30"/>
    <path id="Path_50331" data-name="Path 50331" d="M147.5,38.3a2.065,2.065,0,0,1,2.1,2.1,2.032,2.032,0,0,1-2.1,2.1,2.1,2.1,0,1,1,0-4.21Z" transform="translate(-62.036 -16.037)" fill="#a27b30"/>
    <path id="Path_50332" data-name="Path 50332" d="M147.56,208.01a2.022,2.022,0,0,1-2.162-1.991,2.107,2.107,0,1,1,4.21-.171A2.067,2.067,0,0,1,147.56,208.01Z" transform="translate(-62.035 -87.384)" fill="#a27b30"/>
    <path id="Path_50333" data-name="Path 50333" d="M149.61,229.6a2.065,2.065,0,0,1-2.1,2.1,2.113,2.113,0,0,1-2.1-2.162,2.017,2.017,0,0,1,2.1-2.048A2.065,2.065,0,0,1,149.61,229.6Z" transform="translate(-62.036 -97.599)" fill="#a27b30"/>
    <path id="Path_50334" data-name="Path 50334" d="M147.4,279.01a2.065,2.065,0,0,1-2.1-2.1,2.113,2.113,0,0,1,2.162-2.1,2.017,2.017,0,0,1,2.048,2.1A2.065,2.065,0,0,1,147.4,279.01Z" transform="translate(-61.993 -117.992)" fill="#a27b30"/>
    <path id="Path_50335" data-name="Path 50335" d="M161.425,28.691a1.967,1.967,0,0,1-1.934,1.991,1.944,1.944,0,0,1-1.991-1.991,1.979,1.979,0,0,1,1.991-1.991A2.005,2.005,0,0,1,161.425,28.691Z" transform="translate(-67.253 -11.036)" fill="#a27b30"/>
    <path id="Path_50336" data-name="Path 50336" d="M159.432,243.482a1.9,1.9,0,0,1-1.934-1.991,1.963,1.963,0,1,1,3.925,0A2.015,2.015,0,0,1,159.432,243.482Z" transform="translate(-67.251 -102.774)" fill="#a27b30"/>
    <path id="Path_50337" data-name="Path 50337" d="M159.391,54.282a1.992,1.992,0,1,1,1.934-1.991A1.932,1.932,0,0,1,159.391,54.282Z" transform="translate(-67.21 -21.21)" fill="#a27b30"/>
    <path id="Path_50338" data-name="Path 50338" d="M159.432,74a1.992,1.992,0,1,1-1.934,1.991A1.9,1.9,0,0,1,159.432,74Z" transform="translate(-67.251 -31.427)" fill="#a27b30"/>
    <path id="Path_50339" data-name="Path 50339" d="M159.391,263.2a1.967,1.967,0,0,1,1.991,1.934,1.944,1.944,0,0,1-1.991,1.991,1.979,1.979,0,0,1-1.991-1.991A1.932,1.932,0,0,1,159.391,263.2Z" transform="translate(-67.21 -112.991)" fill="#a27b30"/>
    <path id="Path_50340" data-name="Path 50340" d="M157.4,123.291a1.992,1.992,0,1,1,1.991,1.934A1.932,1.932,0,0,1,157.4,123.291Z" transform="translate(-67.21 -51.818)" fill="#a27b30"/>
    <path id="Path_50341" data-name="Path 50341" d="M161.382,99.732a1.992,1.992,0,1,1-1.991-1.934A1.866,1.866,0,0,1,161.382,99.732Z" transform="translate(-67.21 -41.685)" fill="#a27b30"/>
    <path id="Path_50342" data-name="Path 50342" d="M161.382,146.934a1.979,1.979,0,0,1-1.991,1.991,1.944,1.944,0,0,1-1.991-1.991,1.992,1.992,0,0,1,3.982,0Z" transform="translate(-67.21 -62.035)" fill="#a27b30"/>
    <path id="Path_50343" data-name="Path 50343" d="M159.391,172.482a1.979,1.979,0,0,1-1.991-1.991,1.944,1.944,0,0,1,1.991-1.991,1.967,1.967,0,0,1,1.934,1.991A1.932,1.932,0,0,1,159.391,172.482Z" transform="translate(-67.21 -72.166)" fill="#a27b30"/>
    <path id="Path_50344" data-name="Path 50344" d="M161.425,194.232a1.967,1.967,0,0,1-1.934,1.991,1.944,1.944,0,0,1-1.991-1.991,1.967,1.967,0,0,1,1.991-1.934A1.918,1.918,0,0,1,161.425,194.232Z" transform="translate(-67.253 -82.424)" fill="#a27b30"/>
    <path id="Path_50345" data-name="Path 50345" d="M159.391,219.782a1.979,1.979,0,0,1-1.991-1.991,1.944,1.944,0,0,1,1.991-1.991,1.967,1.967,0,0,1,1.934,1.991A1.9,1.9,0,0,1,159.391,219.782Z" transform="translate(-67.21 -92.557)" fill="#a27b30"/>
    <path id="Path_50346" data-name="Path 50346" d="M159.391,7.082a1.992,1.992,0,1,1,1.934-1.991A1.979,1.979,0,0,1,159.391,7.082Z" transform="translate(-67.21 -0.862)" fill="#a27b30"/>
    <path id="Path_50347" data-name="Path 50347" d="M169.4,87.918a1.81,1.81,0,0,1,1.877-1.82,1.878,1.878,0,0,1-.057,3.755A1.976,1.976,0,0,1,169.4,87.918Z" transform="translate(-72.383 -36.641)" fill="#a27b30"/>
    <path id="Path_50348" data-name="Path 50348" d="M171.277,227.9a1.858,1.858,0,0,1,1.877,1.877,1.878,1.878,0,0,1-3.755.057A1.871,1.871,0,0,1,171.277,227.9Z" transform="translate(-72.383 -97.773)" fill="#a27b30"/>
    <path id="Path_50349" data-name="Path 50349" d="M171.277,278.855a1.877,1.877,0,1,1,0-3.755,1.833,1.833,0,0,1,1.82,1.82A1.794,1.794,0,0,1,171.277,278.855Z" transform="translate(-72.383 -118.121)" fill="#a27b30"/>
    <path id="Path_50350" data-name="Path 50350" d="M171.277,207.955a1.877,1.877,0,1,1,0-3.755,1.878,1.878,0,0,1,0,3.755Z" transform="translate(-72.383 -87.556)" fill="#a27b30"/>
    <path id="Path_50351" data-name="Path 50351" d="M171.277,255.3a1.894,1.894,0,0,1-1.877-1.877,1.81,1.81,0,0,1,1.877-1.82,1.846,1.846,0,0,1,1.82,1.877A1.8,1.8,0,0,1,171.277,255.3Z" transform="translate(-72.383 -107.988)" fill="#a27b30"/>
    <path id="Path_50352" data-name="Path 50352" d="M173.2,64.318a1.894,1.894,0,0,1-1.877,1.877,1.81,1.81,0,0,1-1.82-1.877,1.846,1.846,0,0,1,1.877-1.82A1.8,1.8,0,0,1,173.2,64.318Z" transform="translate(-72.424 -26.467)" fill="#a27b30"/>
    <path id="Path_50353" data-name="Path 50353" d="M171.277,137.1a1.894,1.894,0,0,1-1.877-1.877,1.81,1.81,0,0,1,1.877-1.82,1.846,1.846,0,0,1,1.82,1.877A1.8,1.8,0,0,1,171.277,137.1Z" transform="translate(-72.383 -57.032)" fill="#a27b30"/>
    <path id="Path_50354" data-name="Path 50354" d="M173.2,111.618a1.894,1.894,0,0,1-1.877,1.877,1.81,1.81,0,0,1-1.82-1.877,1.846,1.846,0,0,1,1.877-1.82A1.762,1.762,0,0,1,173.2,111.618Z" transform="translate(-72.424 -46.858)" fill="#a27b30"/>
    <path id="Path_50355" data-name="Path 50355" d="M171.318,38.8a1.894,1.894,0,0,1,1.877,1.877,1.81,1.81,0,0,1-1.877,1.82,1.846,1.846,0,0,1-1.82-1.877A1.763,1.763,0,0,1,171.318,38.8Z" transform="translate(-72.424 -16.252)" fill="#a27b30"/>
    <path id="Path_50356" data-name="Path 50356" d="M173.2,158.918a1.894,1.894,0,0,1-1.877,1.877,1.81,1.81,0,0,1-1.82-1.877,1.846,1.846,0,0,1,1.877-1.82A1.762,1.762,0,0,1,173.2,158.918Z" transform="translate(-72.424 -67.249)" fill="#a27b30"/>
    <path id="Path_50357" data-name="Path 50357" d="M173.155,182.477a1.858,1.858,0,0,1-1.877,1.877,1.878,1.878,0,0,1-.057-3.755A1.871,1.871,0,0,1,173.155,182.477Z" transform="translate(-72.383 -77.382)" fill="#a27b30"/>
    <path id="Path_50358" data-name="Path 50358" d="M171.277,18.855a1.877,1.877,0,1,1,0-3.755,1.878,1.878,0,0,1,0,3.755Z" transform="translate(-72.383 -6.035)" fill="#a27b30"/>
    <path id="Path_50359" data-name="Path 50359" d="M183.164,169a1.75,1.75,0,0,1,1.707,1.707,1.772,1.772,0,0,1-1.764,1.764,1.75,1.75,0,0,1-1.707-1.707A1.851,1.851,0,0,1,183.164,169Z" transform="translate(-77.556 -72.382)" fill="#a27b30"/>
    <path id="Path_50360" data-name="Path 50360" d="M185.011,147.164a1.75,1.75,0,0,1-1.707,1.707,1.69,1.69,0,0,1-1.707-1.764,1.8,1.8,0,0,1,1.764-1.707A1.753,1.753,0,0,1,185.011,147.164Z" transform="translate(-77.64 -62.208)" fill="#a27b30"/>
    <path id="Path_50361" data-name="Path 50361" d="M183.264,30.67a1.8,1.8,0,0,1-1.764-1.707,1.707,1.707,0,1,1,1.764,1.707Z" transform="translate(-77.599 -11.252)" fill="#a27b30"/>
    <path id="Path_50362" data-name="Path 50362" d="M185.011,241.664a1.75,1.75,0,0,1-1.707,1.707,1.69,1.69,0,0,1-1.707-1.764,1.762,1.762,0,0,1,1.764-1.707A1.838,1.838,0,0,1,185.011,241.664Z" transform="translate(-77.64 -102.946)" fill="#a27b30"/>
    <path id="Path_50363" data-name="Path 50363" d="M183.164,263.6a1.75,1.75,0,0,1,1.707,1.707,1.69,1.69,0,0,1-1.764,1.707,1.762,1.762,0,0,1-1.707-1.764A1.792,1.792,0,0,1,183.164,263.6Z" transform="translate(-77.556 -113.164)" fill="#a27b30"/>
    <path id="Path_50364" data-name="Path 50364" d="M181.5,194.307a1.8,1.8,0,0,1,1.764-1.707,1.707,1.707,0,1,1-.057,3.413A1.612,1.612,0,0,1,181.5,194.307Z" transform="translate(-77.597 -82.555)" fill="#a27b30"/>
    <path id="Path_50365" data-name="Path 50365" d="M183.164,121.8a1.75,1.75,0,0,1,1.707,1.707,1.772,1.772,0,0,1-1.764,1.764,1.75,1.75,0,0,1-1.707-1.707A1.809,1.809,0,0,1,183.164,121.8Z" transform="translate(-77.556 -52.034)" fill="#a27b30"/>
    <path id="Path_50366" data-name="Path 50366" d="M184.97,76.164a1.75,1.75,0,0,1-1.707,1.707,1.772,1.772,0,0,1-1.764-1.764,1.75,1.75,0,0,1,1.707-1.707A1.851,1.851,0,0,1,184.97,76.164Z" transform="translate(-77.599 -31.6)" fill="#a27b30"/>
    <path id="Path_50367" data-name="Path 50367" d="M185.011,218.064a1.75,1.75,0,0,1-1.707,1.707,1.723,1.723,0,0,1-1.707-1.764,1.8,1.8,0,0,1,1.764-1.707A1.838,1.838,0,0,1,185.011,218.064Z" transform="translate(-77.64 -92.773)" fill="#a27b30"/>
    <path id="Path_50368" data-name="Path 50368" d="M183.207,50.8a1.8,1.8,0,0,1,1.764,1.707,1.772,1.772,0,0,1-1.764,1.764,1.735,1.735,0,0,1,0-3.47Z" transform="translate(-77.599 -21.426)" fill="#a27b30"/>
    <path id="Path_50369" data-name="Path 50369" d="M183.207,101.611A1.75,1.75,0,0,1,181.5,99.9a1.69,1.69,0,0,1,1.764-1.707,1.762,1.762,0,0,1,1.707,1.764A1.794,1.794,0,0,1,183.207,101.611Z" transform="translate(-77.599 -41.858)" fill="#a27b30"/>
    <path id="Path_50370" data-name="Path 50370" d="M183.207,7.011A1.75,1.75,0,0,1,181.5,5.3,1.69,1.69,0,0,1,183.264,3.6a1.762,1.762,0,0,1,1.707,1.764A1.752,1.752,0,0,1,183.207,7.011Z" transform="translate(-77.599 -1.076)" fill="#a27b30"/>
    <path id="Path_50371" data-name="Path 50371" d="M195.134,136.929a1.509,1.509,0,0,1-1.536-1.593,1.543,1.543,0,0,1,1.593-1.536,1.565,1.565,0,0,1-.057,3.129Z" transform="translate(-82.813 -57.207)" fill="#a27b30"/>
    <path id="Path_50372" data-name="Path 50372" d="M196.729,206.393a1.579,1.579,0,0,1-1.593,1.536,1.543,1.543,0,0,1-1.536-1.593,1.579,1.579,0,0,1,1.593-1.536A1.543,1.543,0,0,1,196.729,206.393Z" transform="translate(-82.815 -87.815)" fill="#a27b30"/>
    <path id="Path_50373" data-name="Path 50373" d="M195.193,113.329a1.59,1.59,0,0,1-1.593-1.593,1.53,1.53,0,0,1,1.536-1.536,1.59,1.59,0,0,1,1.593,1.593A1.53,1.53,0,0,1,195.193,113.329Z" transform="translate(-82.815 -47.033)" fill="#a27b30"/>
    <path id="Path_50374" data-name="Path 50374" d="M196.729,253.634a1.509,1.509,0,0,1-1.593,1.536,1.53,1.53,0,0,1-1.536-1.536,1.509,1.509,0,0,1,1.593-1.536A1.53,1.53,0,0,1,196.729,253.634Z" transform="translate(-82.815 -108.204)" fill="#a27b30"/>
    <path id="Path_50375" data-name="Path 50375" d="M195.234,42.429a1.509,1.509,0,0,1-1.536-1.593,1.53,1.53,0,0,1,1.536-1.536,1.509,1.509,0,0,1,1.536,1.593A1.53,1.53,0,0,1,195.234,42.429Z" transform="translate(-82.856 -16.468)" fill="#a27b30"/>
    <path id="Path_50376" data-name="Path 50376" d="M195.134,160.629a1.509,1.509,0,0,1-1.536-1.593,1.543,1.543,0,0,1,1.593-1.536,1.509,1.509,0,0,1,1.536,1.593A1.579,1.579,0,0,1,195.134,160.629Z" transform="translate(-82.813 -67.424)" fill="#a27b30"/>
    <path id="Path_50377" data-name="Path 50377" d="M196.729,17.234a1.509,1.509,0,0,1-1.593,1.536,1.53,1.53,0,0,1-1.536-1.536,1.509,1.509,0,0,1,1.593-1.536A1.53,1.53,0,0,1,196.729,17.234Z" transform="translate(-82.815 -6.292)" fill="#a27b30"/>
    <path id="Path_50378" data-name="Path 50378" d="M195.134,86.6a1.509,1.509,0,0,1,1.536,1.593,1.53,1.53,0,0,1-1.536,1.536,1.509,1.509,0,0,1-1.536-1.593A1.53,1.53,0,0,1,195.134,86.6Z" transform="translate(-82.813 -36.859)" fill="#a27b30"/>
    <path id="Path_50379" data-name="Path 50379" d="M196.729,277.236a1.59,1.59,0,0,1-1.593,1.593,1.53,1.53,0,0,1-1.536-1.536,1.59,1.59,0,0,1,1.593-1.593A1.53,1.53,0,0,1,196.729,277.236Z" transform="translate(-82.815 -118.38)" fill="#a27b30"/>
    <path id="Path_50380" data-name="Path 50380" d="M193.6,230.034a1.51,1.51,0,0,1,1.593-1.536,1.53,1.53,0,0,1,1.536,1.536,1.509,1.509,0,0,1-1.593,1.536A1.53,1.53,0,0,1,193.6,230.034Z" transform="translate(-82.815 -98.03)" fill="#a27b30"/>
    <path id="Path_50381" data-name="Path 50381" d="M196.729,182.736a1.59,1.59,0,0,1-1.593,1.593,1.53,1.53,0,0,1-1.536-1.536,1.59,1.59,0,0,1,1.593-1.593A1.53,1.53,0,0,1,196.729,182.736Z" transform="translate(-82.815 -77.641)" fill="#a27b30"/>
    <path id="Path_50382" data-name="Path 50382" d="M193.6,64.534A1.509,1.509,0,0,1,195.193,63a1.543,1.543,0,0,1,1.536,1.593,1.509,1.509,0,0,1-1.593,1.536A1.617,1.617,0,0,1,193.6,64.534Z" transform="translate(-82.815 -26.683)" fill="#a27b30"/>
    <path id="Path_50383" data-name="Path 50383" d="M207.122,98.7a1.422,1.422,0,1,1-1.422,1.422A1.375,1.375,0,0,1,207.122,98.7Z" transform="translate(-88.032 -42.073)" fill="#a27b30"/>
    <path id="Path_50384" data-name="Path 50384" d="M207.022,125.145a1.422,1.422,0,1,1,1.422-1.422A1.408,1.408,0,0,1,207.022,125.145Z" transform="translate(-87.989 -52.249)" fill="#a27b30"/>
    <path id="Path_50385" data-name="Path 50385" d="M208.545,241.922a1.422,1.422,0,1,1-1.422-1.422A1.445,1.445,0,0,1,208.545,241.922Z" transform="translate(-88.032 -103.205)" fill="#a27b30"/>
    <path id="Path_50386" data-name="Path 50386" d="M207.022,145.9a1.422,1.422,0,1,1-1.422,1.422A1.578,1.578,0,0,1,207.022,145.9Z" transform="translate(-87.989 -62.423)" fill="#a27b30"/>
    <path id="Path_50387" data-name="Path 50387" d="M208.545,265.522a1.422,1.422,0,1,1-1.422-1.422A1.529,1.529,0,0,1,208.545,265.522Z" transform="translate(-88.032 -113.379)" fill="#a27b30"/>
    <path id="Path_50388" data-name="Path 50388" d="M208.545,170.922a1.422,1.422,0,1,1-1.422-1.422A1.578,1.578,0,0,1,208.545,170.922Z" transform="translate(-88.032 -72.597)" fill="#a27b30"/>
    <path id="Path_50389" data-name="Path 50389" d="M208.585,76.42A1.394,1.394,0,1,1,207.22,75,1.435,1.435,0,0,1,208.585,76.42Z" transform="translate(-88.072 -31.856)" fill="#a27b30"/>
    <path id="Path_50390" data-name="Path 50390" d="M207.022,54.245a1.422,1.422,0,1,1,1.422-1.422A1.445,1.445,0,0,1,207.022,54.245Z" transform="translate(-87.989 -21.684)" fill="#a27b30"/>
    <path id="Path_50391" data-name="Path 50391" d="M207.122,193.2a1.422,1.422,0,1,1-1.422,1.422A1.445,1.445,0,0,1,207.122,193.2Z" transform="translate(-88.032 -82.814)" fill="#a27b30"/>
    <path id="Path_50392" data-name="Path 50392" d="M208.545,29.122a1.422,1.422,0,1,1-1.422-1.422A1.485,1.485,0,0,1,208.545,29.122Z" transform="translate(-88.032 -11.467)" fill="#a27b30"/>
    <path id="Path_50393" data-name="Path 50393" d="M207.122,216.9a1.422,1.422,0,1,1-1.422,1.422A1.408,1.408,0,0,1,207.122,216.9Z" transform="translate(-88.032 -93.031)" fill="#a27b30"/>
    <path id="Path_50394" data-name="Path 50394" d="M207.122,6.945a1.422,1.422,0,1,1,1.422-1.422A1.485,1.485,0,0,1,207.122,6.945Z" transform="translate(-88.032 -1.293)" fill="#a27b30"/>
    <path id="Path_50395" data-name="Path 50395" d="M220.246,41.095a1.223,1.223,0,1,1-1.252-1.195A1.215,1.215,0,0,1,220.246,41.095Z" transform="translate(-93.248 -16.727)" fill="#a27b30"/>
    <path id="Path_50396" data-name="Path 50396" d="M219.095,184.189a1.195,1.195,0,1,1,1.195-1.195A1.2,1.2,0,0,1,219.095,184.189Z" transform="translate(-93.291 -77.9)" fill="#a27b30"/>
    <path id="Path_50397" data-name="Path 50397" d="M220.289,64.792a1.195,1.195,0,1,1-1.195-1.195A1.166,1.166,0,0,1,220.289,64.792Z" transform="translate(-93.291 -26.941)" fill="#a27b30"/>
    <path id="Path_50398" data-name="Path 50398" d="M219.092,205.4a1.195,1.195,0,1,1-1.195,1.195A1.166,1.166,0,0,1,219.092,205.4Z" transform="translate(-93.288 -88.074)" fill="#a27b30"/>
    <path id="Path_50399" data-name="Path 50399" d="M220.246,111.995a1.223,1.223,0,1,1-1.252-1.195A1.253,1.253,0,0,1,220.246,111.995Z" transform="translate(-93.248 -47.292)" fill="#a27b30"/>
    <path id="Path_50400" data-name="Path 50400" d="M219.095,87.2a1.195,1.195,0,1,1-1.195,1.195A1.2,1.2,0,0,1,219.095,87.2Z" transform="translate(-93.291 -37.118)" fill="#a27b30"/>
    <path id="Path_50401" data-name="Path 50401" d="M220.246,230.195A1.223,1.223,0,1,1,218.995,229,1.253,1.253,0,0,1,220.246,230.195Z" transform="translate(-93.248 -98.247)" fill="#a27b30"/>
    <path id="Path_50402" data-name="Path 50402" d="M220.246,253.895a1.223,1.223,0,1,1-1.252-1.195A1.215,1.215,0,0,1,220.246,253.895Z" transform="translate(-93.248 -108.465)" fill="#a27b30"/>
    <path id="Path_50403" data-name="Path 50403" d="M219.092,16.3a1.339,1.339,0,0,1,1.252,1.195,1.223,1.223,0,0,1-2.446.057A1.18,1.18,0,0,1,219.092,16.3Z" transform="translate(-93.288 -6.553)" fill="#a27b30"/>
    <path id="Path_50404" data-name="Path 50404" d="M219.052,276.3a1.223,1.223,0,1,1-1.252,1.195A1.339,1.339,0,0,1,219.052,276.3Z" transform="translate(-93.248 -118.639)" fill="#a27b30"/>
    <path id="Path_50405" data-name="Path 50405" d="M219.052,158.1a1.223,1.223,0,1,1-1.252,1.195A1.339,1.339,0,0,1,219.052,158.1Z" transform="translate(-93.248 -67.683)" fill="#a27b30"/>
    <path id="Path_50406" data-name="Path 50406" d="M220.246,135.652a1.223,1.223,0,1,1-1.195-1.252A1.291,1.291,0,0,1,220.246,135.652Z" transform="translate(-93.248 -57.466)" fill="#a27b30"/>
    <path id="Path_50407" data-name="Path 50407" d="M232.091,242.224a1,1,0,1,1-.967-1.024A1.094,1.094,0,0,1,232.091,242.224Z" transform="translate(-98.551 -103.507)" fill="#a27b30"/>
    <path id="Path_50408" data-name="Path 50408" d="M230.967,266.891a1,1,0,1,1,1.024-.967A.973.973,0,0,1,230.967,266.891Z" transform="translate(-98.507 -113.724)" fill="#a27b30"/>
    <path id="Path_50409" data-name="Path 50409" d="M232.091,29.467a1,1,0,1,1-1.024-.967A1.046,1.046,0,0,1,232.091,29.467Z" transform="translate(-98.551 -11.812)" fill="#a27b30"/>
    <path id="Path_50410" data-name="Path 50410" d="M231.024,194a1,1,0,1,1-1.024.967A1.046,1.046,0,0,1,231.024,194Z" transform="translate(-98.507 -83.159)" fill="#a27b30"/>
    <path id="Path_50411" data-name="Path 50411" d="M231.067,54.091a1,1,0,1,1,1.024-.967A1.094,1.094,0,0,1,231.067,54.091Z" transform="translate(-98.551 -21.986)" fill="#a27b30"/>
    <path id="Path_50412" data-name="Path 50412" d="M232.091,100.424a1,1,0,1,1-.967-1.024A1.009,1.009,0,0,1,232.091,100.424Z" transform="translate(-98.551 -42.377)" fill="#a27b30"/>
    <path id="Path_50413" data-name="Path 50413" d="M232.091,147.724a1,1,0,1,1-.967-1.024A1.009,1.009,0,0,1,232.091,147.724Z" transform="translate(-98.551 -62.768)" fill="#a27b30"/>
    <path id="Path_50414" data-name="Path 50414" d="M232.091,76.767a1,1,0,1,1-1.024-.967A1.046,1.046,0,0,1,232.091,76.767Z" transform="translate(-98.551 -32.203)" fill="#a27b30"/>
    <path id="Path_50415" data-name="Path 50415" d="M232.091,171.267a1,1,0,1,1-1.024-.967A1.094,1.094,0,0,1,232.091,171.267Z" transform="translate(-98.551 -72.942)" fill="#a27b30"/>
    <path id="Path_50416" data-name="Path 50416" d="M231.067,217.6a1,1,0,1,1-.967,1.024A.973.973,0,0,1,231.067,217.6Z" transform="translate(-98.551 -93.333)" fill="#a27b30"/>
    <path id="Path_50417" data-name="Path 50417" d="M230.1,124.067a1,1,0,1,1,.967,1.024A1.046,1.046,0,0,1,230.1,124.067Z" transform="translate(-98.551 -52.594)" fill="#a27b30"/>
    <path id="Path_50418" data-name="Path 50418" d="M232.091,5.824a1,1,0,1,1-.967-1.024A1.094,1.094,0,0,1,232.091,5.824Z" transform="translate(-98.551 -1.595)" fill="#a27b30"/>
    <path id="Path_50419" data-name="Path 50419" d="M243.083,18.6a.683.683,0,0,1-.683-.626.644.644,0,0,1,.626-.683.628.628,0,0,1,.683.683C243.765,18.319,243.538,18.547,243.083,18.6Z" transform="translate(-103.853 -6.979)" fill="#a27b30"/>
    <path id="Path_50420" data-name="Path 50420" d="M243.808,183.42a.683.683,0,0,1-.626.683.657.657,0,0,1-.683-.683.613.613,0,0,1,.683-.626C243.581,182.738,243.752,183.022,243.808,183.42Z" transform="translate(-103.896 -78.325)" fill="#a27b30"/>
    <path id="Path_50421" data-name="Path 50421" d="M243.083,42.208a.683.683,0,0,1-.683-.626.657.657,0,0,1,.683-.683.613.613,0,0,1,.626.683C243.765,41.981,243.481,42.152,243.083,42.208Z" transform="translate(-103.853 -17.158)" fill="#a27b30"/>
    <path id="Path_50422" data-name="Path 50422" d="M242.5,277.983a.683.683,0,0,1,.626-.683.657.657,0,0,1,.683.683.613.613,0,0,1-.683.626A.569.569,0,0,1,242.5,277.983Z" transform="translate(-103.896 -119.07)" fill="#a27b30"/>
    <path id="Path_50423" data-name="Path 50423" d="M243.126,253.6a.683.683,0,0,1,.683.626.657.657,0,0,1-.683.683.613.613,0,0,1-.626-.683C242.5,253.884,242.728,253.657,243.126,253.6Z" transform="translate(-103.896 -108.853)" fill="#a27b30"/>
    <path id="Path_50424" data-name="Path 50424" d="M243.8,159.726a.683.683,0,0,1-.626.683.644.644,0,0,1-.683-.626.628.628,0,0,1,.683-.683C243.576,159.1,243.747,159.328,243.8,159.726Z" transform="translate(-103.891 -68.114)" fill="#a27b30"/>
    <path id="Path_50425" data-name="Path 50425" d="M243.808,136.177a.6.6,0,0,1-.626.626.657.657,0,0,1-.683-.683c0-.4.228-.626.683-.626C243.524,135.438,243.808,135.722,243.808,136.177Z" transform="translate(-103.896 -57.934)" fill="#a27b30"/>
    <path id="Path_50426" data-name="Path 50426" d="M243.126,231.308c-.341-.057-.626-.228-.626-.626a.657.657,0,0,1,.683-.683.655.655,0,0,1-.057,1.308Z" transform="translate(-103.896 -98.679)" fill="#a27b30"/>
    <path id="Path_50427" data-name="Path 50427" d="M243.765,88.883a.684.684,0,0,1-.683.626.657.657,0,0,1-.683-.683.644.644,0,0,1,.683-.626A.657.657,0,0,1,243.765,88.883Z" transform="translate(-103.853 -37.549)" fill="#a27b30"/>
    <path id="Path_50428" data-name="Path 50428" d="M243.8,65.183a.644.644,0,0,1-.683.626.61.61,0,0,1-.626-.683.655.655,0,0,1,1.308.057Z" transform="translate(-103.891 -27.332)" fill="#a27b30"/>
    <path id="Path_50429" data-name="Path 50429" d="M243.026,113.1a.731.731,0,0,1-.626-.683.61.61,0,0,1,.683-.626.644.644,0,0,1,.626.683C243.765,112.875,243.424,113.1,243.026,113.1Z" transform="translate(-103.853 -47.717)" fill="#a27b30"/>
    <path id="Path_50430" data-name="Path 50430" d="M243.183,206.4c.341.057.626.228.626.626a.657.657,0,0,1-.683.683.655.655,0,0,1,.057-1.308Z" transform="translate(-103.896 -88.505)" fill="#a27b30"/>
  </g>
</svg>
